<svg width="17" height="16" viewBox="0 0 17 16" fill="none" xmlns="http://www.w3.org/2000/svg">
<path d="M15.3027 0.773886C14.542 0.139219 13.5467 -0.121448 12.5707 0.0532191L10.0227 0.516552C9.414 0.627886 8.88533 0.939219 8.5 1.37589C8.11467 0.939219 7.586 0.627219 6.97667 0.516552L4.42933 0.0538857C3.45533 -0.121448 2.45867 0.139219 1.69733 0.773886C0.936 1.40922 0.5 2.34189 0.5 3.33322V11.8612C0.5 13.4726 1.65133 14.8519 3.23733 15.1406L7.42667 15.9026C7.78267 15.9672 8.14133 15.9999 8.5 15.9999C8.85867 15.9999 9.21733 15.9679 9.57333 15.9026L13.7633 15.1406C15.3493 14.8519 16.5 13.4726 16.5 11.8612V3.33322C16.5 2.34189 16.0633 1.40922 15.3027 0.773886ZM7.83333 14.6179C7.77733 14.6099 3.476 13.8286 3.476 13.8286C2.524 13.6552 1.83333 12.8279 1.83333 11.8606V3.33322C1.83333 2.73855 2.09533 2.17922 2.552 1.79789C2.91533 1.49455 3.36733 1.33322 3.83133 1.33322C3.95067 1.33322 4.07133 1.34389 4.19133 1.36589L6.73867 1.82922C7.37333 1.94455 7.834 2.49655 7.834 3.14122V14.6186L7.83333 14.6179ZM15.1667 11.8612C15.1667 12.8286 14.476 13.6559 13.5247 13.8292C13.5247 13.8292 9.22333 14.6099 9.16667 14.6186V3.14055C9.16667 2.49589 9.62733 1.94455 10.2613 1.82855L12.8087 1.36522C13.394 1.25789 13.9907 1.41589 14.448 1.79722C14.9047 2.17855 15.1667 2.73789 15.1667 3.33255V11.8612ZM6.48933 4.14855C6.43067 4.47055 6.15 4.69589 5.834 4.69589C5.79467 4.69589 3.714 4.32122 3.714 4.32122C3.352 4.25522 3.11133 3.90855 3.17733 3.54589C3.24333 3.18389 3.58733 2.94522 3.95267 3.00922L5.95267 3.37255C6.31467 3.43855 6.55533 3.78589 6.48933 4.14855ZM6.48933 6.78522C6.43067 7.10722 6.15 7.33255 5.834 7.33255C5.79467 7.33255 3.714 6.95789 3.714 6.95789C3.352 6.89189 3.11133 6.54522 3.17733 6.18255C3.24333 5.82055 3.58733 5.58055 3.95267 5.64589L5.95267 6.00922C6.31467 6.07522 6.55533 6.42255 6.48933 6.78522ZM6.48933 9.45189C6.43067 9.77389 6.15 9.99922 5.834 9.99922C5.79467 9.99922 3.714 9.62455 3.714 9.62455C3.352 9.55855 3.11133 9.21189 3.17733 8.84922C3.24333 8.48722 3.58733 8.24789 3.95267 8.31255L5.95267 8.67589C6.31467 8.74189 6.55533 9.08922 6.48933 9.45189ZM13.8227 3.54722C13.8887 3.90922 13.648 4.25655 13.286 4.32255C13.286 4.32255 11.2053 4.69722 11.166 4.69722C10.85 4.69722 10.5693 4.47189 10.5107 4.14989C10.4447 3.78789 10.6853 3.44055 11.0473 3.37455L13.0473 3.01122C13.408 2.94655 13.7567 3.18522 13.8227 3.54722ZM13.8227 6.18389C13.8887 6.54589 13.648 6.89322 13.286 6.95922C13.286 6.95922 11.2053 7.33389 11.166 7.33389C10.85 7.33389 10.5693 7.10855 10.5107 6.78655C10.4447 6.42455 10.6853 6.07722 11.0473 6.01122L13.0473 5.64789C13.408 5.58255 13.7567 5.82189 13.8227 6.18389ZM13.8227 8.85055C13.8887 9.21255 13.648 9.55989 13.286 9.62589C13.286 9.62589 11.2053 10.0006 11.166 10.0006C10.85 10.0006 10.5693 9.77522 10.5107 9.45322C10.4447 9.09122 10.6853 8.74389 11.0473 8.67789L13.0473 8.31455C13.408 8.24989 13.7567 8.48855 13.8227 8.85055ZM12.4893 11.7599C12.5553 12.1219 12.3147 12.4692 11.9527 12.5352C11.9527 12.5352 11.2053 12.6672 11.166 12.6672C10.85 12.6672 10.5693 12.4419 10.5107 12.1199C10.4447 11.7579 10.6853 11.4106 11.0473 11.3446L11.714 11.2232C12.08 11.1579 12.4233 11.3979 12.4893 11.7599ZM5.156 11.9072C5.09733 12.2292 4.81667 12.4546 4.50067 12.4546C4.46133 12.4546 3.714 12.3226 3.714 12.3226C3.352 12.2566 3.11133 11.9099 3.17733 11.5472C3.24333 11.1852 3.58733 10.9432 3.95267 11.0106L4.61933 11.1319C4.98133 11.1979 5.222 11.5446 5.156 11.9072Z" fill="#4D4D4D"/>
</svg>
