<svg width="17" height="16" viewBox="0 0 17 16" fill="none" xmlns="http://www.w3.org/2000/svg">
<path d="M15.914 6.04603L10.8573 0.9887C10.2315 0.364692 9.38378 0.0142822 8.50001 0.0142822C7.61623 0.0142822 6.76851 0.364692 6.14267 0.9887L1.08601 6.04603C0.899625 6.23122 0.751855 6.45157 0.651263 6.69429C0.550671 6.93701 0.49926 7.19729 0.500008 7.46003V14.0047C0.500008 14.5351 0.710722 15.0438 1.08579 15.4189C1.46087 15.794 1.96958 16.0047 2.50001 16.0047H14.5C15.0304 16.0047 15.5391 15.794 15.9142 15.4189C16.2893 15.0438 16.5 14.5351 16.5 14.0047V7.46003C16.5008 7.19729 16.4493 6.93701 16.3488 6.69429C16.2482 6.45157 16.1004 6.23122 15.914 6.04603ZM10.5 14.6714H6.50001V12.0487C6.50001 11.5183 6.71072 11.0096 7.08579 10.6345C7.46087 10.2594 7.96958 10.0487 8.50001 10.0487C9.03044 10.0487 9.53915 10.2594 9.91422 10.6345C10.2893 11.0096 10.5 11.5183 10.5 12.0487V14.6714ZM15.1667 14.0047C15.1667 14.1815 15.0964 14.3511 14.9714 14.4761C14.8464 14.6011 14.6768 14.6714 14.5 14.6714H11.8333V12.0487C11.8333 11.1646 11.4822 10.3168 10.857 9.69168C10.2319 9.06656 9.38406 8.71537 8.50001 8.71537C7.61595 8.71537 6.76811 9.06656 6.14299 9.69168C5.51786 10.3168 5.16667 11.1646 5.16667 12.0487V14.6714H2.50001C2.3232 14.6714 2.15363 14.6011 2.0286 14.4761C1.90358 14.3511 1.83334 14.1815 1.83334 14.0047V7.46003C1.83396 7.28335 1.90413 7.11402 2.02867 6.9887L7.08534 1.93337C7.46114 1.55932 7.96979 1.34933 8.50001 1.34933C9.03023 1.34933 9.53888 1.55932 9.91467 1.93337L14.9713 6.9907C15.0954 7.11553 15.1655 7.28405 15.1667 7.46003V14.0047Z" fill="#4D4D4D"/>
</svg>
