<svg xmlns="http://www.w3.org/2000/svg" width="19" height="18" fill="none" viewBox="0 0 19 18">
  <g clip-path="url(#a)">
    <path fill="#202020" d="M5.75 10.5a.75.75 0 0 1-.75.75h-.75a.75.75 0 1 1 0-1.5H5a.75.75 0 0 1 .75.75Zm3-.75H8a.75.75 0 1 0 0 1.5h.75a.75.75 0 1 0 0-1.5Zm-3.75 3h-.75a.75.75 0 1 0 0 1.5H5a.75.75 0 1 0 0-1.5Zm3.75 0H8a.75.75 0 1 0 0 1.5h.75a.75.75 0 1 0 0-1.5ZM5 3.75h-.75a.75.75 0 1 0 0 1.5H5a.75.75 0 0 0 0-1.5Zm3.75 0H8a.75.75 0 1 0 0 1.5h.75a.75.75 0 0 0 0-1.5ZM5 6.75h-.75a.75.75 0 1 0 0 1.5H5a.75.75 0 0 0 0-1.5Zm3.75 0H8a.75.75 0 1 0 0 1.5h.75a.75.75 0 0 0 0-1.5Zm9.75.75v6.75A3.755 3.755 0 0 1 14.75 18H4.25A3.755 3.755 0 0 1 .5 14.25V3.75A3.755 3.755 0 0 1 4.25 0h4.5a3.754 3.754 0 0 1 3.75 3.75h2.25A3.754 3.754 0 0 1 18.5 7.5Zm-14.25 9H11V3.75A2.25 2.25 0 0 0 8.75 1.5h-4.5A2.25 2.25 0 0 0 2 3.75v10.5a2.25 2.25 0 0 0 2.25 2.25ZM17 7.5a2.25 2.25 0 0 0-2.25-2.25H12.5V16.5h2.25A2.25 2.25 0 0 0 17 14.25V7.5Zm-2.25 2.25a.75.75 0 1 0 0 1.5.75.75 0 0 0 0-1.5Zm0 3a.75.75 0 1 0 0 1.5.75.75 0 0 0 0-1.5Zm0-6a.75.75 0 1 0 0 1.5.75.75 0 0 0 0-1.5Z"/>
  </g>
  <defs>
    <clipPath id="a">
      <path fill="#fff" d="M.5 0h18v18H.5z"/>
    </clipPath>
  </defs>
</svg>
