<svg xmlns="http://www.w3.org/2000/svg" width="17" height="16" fill="none" viewBox="0 0 17 16">
  <g clip-path="url(#a)">
    <path fill="#4D4D4D" d="M11.167 9.333A.667.667 0 0 1 10.5 10h-.667a.667.667 0 0 1 0-1.333h.667c.368 0 .667.298.667.666Zm2-.666H12.5a.667.667 0 0 0 0 1.333h.667a.667.667 0 0 0 0-1.333ZM10.5 11.333h-.667a.667.667 0 0 0 0 1.334h.667a.667.667 0 0 0 0-1.334Zm2.667 0H12.5a.667.667 0 0 0 0 1.334h.667a.667.667 0 0 0 0-1.334Zm-2.667-8h-.667a.667.667 0 0 0 0 1.334h.667a.667.667 0 0 0 0-1.334Zm2.667 0H12.5a.667.667 0 0 0 0 1.334h.667a.667.667 0 0 0 0-1.334ZM10.5 6h-.667a.667.667 0 0 0 0 1.333h.667A.667.667 0 0 0 10.5 6Zm2.667 0H12.5a.667.667 0 0 0 0 1.333h.667a.667.667 0 0 0 0-1.333ZM16.5 3.333v9.334A3.337 3.337 0 0 1 13.167 16H3.833A3.337 3.337 0 0 1 .5 12.667V6.172c0-.9.372-1.776 1.02-2.4l1.26-1.213a1.993 1.993 0 0 1 2.774 0l.946.912v-.138A3.337 3.337 0 0 1 9.833 0h3.334A3.337 3.337 0 0 1 16.5 3.333Zm-10 2.839a2.01 2.01 0 0 0-.613-1.44L4.63 3.518a.662.662 0 0 0-.924 0l-1.26 1.213c-.39.375-.613.9-.613 1.441v6.495c0 1.102.898 2 2 2H6.5V6.172Zm8.667-2.839c0-1.102-.898-2-2-2H9.833c-1.102 0-2 .898-2 2v11.334h5.334c1.102 0 2-.898 2-2V3.333ZM4.5 8.667h-.667a.667.667 0 0 0 0 1.333H4.5a.667.667 0 0 0 0-1.333ZM4.5 6h-.667a.667.667 0 0 0 0 1.333H4.5A.667.667 0 0 0 4.5 6Zm0 5.333h-.667a.667.667 0 0 0 0 1.334H4.5a.667.667 0 0 0 0-1.334Z"/>
  </g>
  <defs>
    <clipPath id="a">
      <path fill="#fff" d="M.5 0h16v16H.5z"/>
    </clipPath>
  </defs>
</svg>
