<svg xmlns="http://www.w3.org/2000/svg" width="17" height="16" fill="none" viewBox="0 0 17 16">
  <g clip-path="url(#a)">
    <path fill="#4D4D4D" d="M13.833 0H3.167A2.667 2.667 0 0 0 .5 2.667v8a2.667 2.667 0 0 0 2.667 2.666H5.1l2.967 2.509a.667.667 0 0 0 .862 0l2.971-2.509h1.933a2.667 2.667 0 0 0 2.667-2.666v-8A2.667 2.667 0 0 0 13.833 0Zm1.334 10.667A1.333 1.333 0 0 1 13.833 12H11.9c-.315 0-.62.112-.86.315L8.5 14.46l-2.538-2.145A1.333 1.333 0 0 0 5.1 12H3.167a1.333 1.333 0 0 1-1.334-1.333v-8a1.333 1.333 0 0 1 1.334-1.334h10.666a1.333 1.333 0 0 1 1.334 1.334v8Z"/>
    <path fill="#4D4D4D" d="M5.167 4.667H8.5a.667.667 0 0 0 0-1.334H5.167a.667.667 0 0 0 0 1.334ZM11.833 6H5.167a.667.667 0 0 0 0 1.333h6.666a.667.667 0 1 0 0-1.333Zm0 2.667H5.167a.667.667 0 0 0 0 1.333h6.666a.667.667 0 1 0 0-1.333Z"/>
  </g>
  <defs>
    <clipPath id="a">
      <path fill="#fff" d="M.5 0h16v16H.5z"/>
    </clipPath>
  </defs>
</svg>
