<svg xmlns="http://www.w3.org/2000/svg" width="17" height="16" fill="none" viewBox="0 0 17 16">
  <g clip-path="url(#a)">
    <path fill="#4D4D4D" d="M8.5 5.334a2.667 2.667 0 1 0 0 5.333 2.667 2.667 0 0 0 0-5.333Zm0 4a1.333 1.333 0 1 1 0-2.667 1.333 1.333 0 0 1 0 2.667Z"/>
    <path fill="#4D4D4D" d="m14.696 9.267-.296-.17a6.065 6.065 0 0 0 0-2.194l.296-.17a2 2 0 0 0-.481-3.667 2.001 2.001 0 0 0-1.519.2l-.297.17A5.985 5.985 0 0 0 10.5 2.343V2a2 2 0 1 0-4 0v.342A5.985 5.985 0 0 0 4.601 3.44l-.298-.172a2.001 2.001 0 1 0-2 3.466l.296.171a6.067 6.067 0 0 0 0 2.193l-.296.171a2.001 2.001 0 1 0 2 3.467l.297-.172c.56.48 1.205.85 1.9 1.095V14a2 2 0 0 0 4 0v-.342a5.986 5.986 0 0 0 1.899-1.097l.298.172a2.001 2.001 0 1 0 2-3.467h-.001Zm-1.699-2.518a4.7 4.7 0 0 1 0 2.5.666.666 0 0 0 .31.756l.722.417a.667.667 0 1 1-.666 1.155l-.724-.418a.667.667 0 0 0-.81.11 4.656 4.656 0 0 1-2.162 1.25.667.667 0 0 0-.501.646V14a.667.667 0 0 1-1.333 0v-.835a.666.666 0 0 0-.501-.646 4.656 4.656 0 0 1-2.161-1.252.667.667 0 0 0-.81-.11l-.723.418a.666.666 0 1 1-.667-1.155l.723-.417a.666.666 0 0 0 .31-.756 4.699 4.699 0 0 1 0-2.5.667.667 0 0 0-.31-.752l-.723-.418a.667.667 0 1 1 .666-1.155l.724.419a.667.667 0 0 0 .81-.108 4.656 4.656 0 0 1 2.162-1.25.667.667 0 0 0 .5-.648V2a.667.667 0 0 1 1.334 0v.835a.667.667 0 0 0 .5.646 4.656 4.656 0 0 1 2.162 1.252.667.667 0 0 0 .81.11l.723-.418a.667.667 0 1 1 .667 1.155l-.723.417a.666.666 0 0 0-.309.753Z"/>
  </g>
  <defs>
    <clipPath id="a">
      <path fill="#fff" d="M.5 0h16v16H.5z"/>
    </clipPath>
  </defs>
</svg>
