<svg xmlns="http://www.w3.org/2000/svg" width="17" height="16" fill="none" viewBox="0 0 17 16">
  <g clip-path="url(#a)">
    <path fill="#4D4D4D" d="M11.833 0H5.167a3.337 3.337 0 0 0-3.334 3.333v10A2.667 2.667 0 0 0 4.5 16h7.333a3.337 3.337 0 0 0 3.334-3.333V3.333A3.337 3.337 0 0 0 11.833 0Zm2 3.333v7.334h-8V1.333h6a2 2 0 0 1 2 2ZM4.5 1.448v9.219c-.468 0-.928.123-1.333.358V3.333A2 2 0 0 1 4.5 1.448Zm7.333 13.219H4.5A1.333 1.333 0 1 1 4.5 12h9.333v.667a2 2 0 0 1-2 2Z"/>
  </g>
  <defs>
    <clipPath id="a">
      <path fill="#fff" d="M.5 0h16v16H.5z"/>
    </clipPath>
  </defs>
</svg>
