<svg xmlns="http://www.w3.org/2000/svg" width="17" height="16" fill="none" viewBox="0 0 17 16">
  <g clip-path="url(#a)">
    <path fill="#4D4D4D" d="M13.767 2.06A2.668 2.668 0 0 0 10.433.103L9.284.431c-.291.083-.56.233-.784.436A1.987 1.987 0 0 0 7.716.43L6.566.102a2.667 2.667 0 0 0-3.33 1.959A3.333 3.333 0 0 0 .5 5.333V10a3.337 3.337 0 0 0 3.333 3.334h4v1.333h-2a.666.666 0 1 0 0 1.333h5.334a.667.667 0 0 0 0-1.333h-2v-1.333h4A3.337 3.337 0 0 0 16.5 10V5.333a3.334 3.334 0 0 0-2.733-3.272Zm-4.6.294a.667.667 0 0 1 .483-.64l1.15-.33a1.333 1.333 0 0 1 1.7 1.283v2.625a1.337 1.337 0 0 1-.967 1.28l-2.366.677V2.354ZM5.033 1.6A1.329 1.329 0 0 1 6.2 1.385l1.15.328a.667.667 0 0 1 .483.641V7.25l-2.366-.676a1.337 1.337 0 0 1-.967-1.28V2.666A1.325 1.325 0 0 1 5.033 1.6ZM15.167 10a2 2 0 0 1-2 2H3.833a2 2 0 0 1-2-2V5.333a2 2 0 0 1 1.334-1.877v1.836A2.676 2.676 0 0 0 5.1 7.855l2.3.658a4.013 4.013 0 0 0 2.2 0l2.301-.658a2.676 2.676 0 0 0 1.932-2.563V3.456a2 2 0 0 1 1.334 1.877V10Z"/>
  </g>
  <defs>
    <clipPath id="a">
      <path fill="#fff" d="M.5 0h16v16H.5z"/>
    </clipPath>
  </defs>
</svg>
