<svg xmlns="http://www.w3.org/2000/svg" width="17" height="16" fill="none" viewBox="0 0 17 16">
  <g clip-path="url(#a)">
    <path fill="#4D4D4D" d="m13.8 3.691-2.324-2.324A4.636 4.636 0 0 0 8.176 0h-3.01a3.337 3.337 0 0 0-3.333 3.334v9.333A3.337 3.337 0 0 0 5.167 16h6.666a3.337 3.337 0 0 0 3.334-3.333V6.99A4.636 4.636 0 0 0 13.8 3.691Zm-.943.943c.204.21.379.445.52.7H10.5a.667.667 0 0 1-.667-.667V1.789c.255.142.49.317.7.52l2.324 2.325Zm.976 8.033a2 2 0 0 1-2 2H5.167a2 2 0 0 1-2-2V3.334a2 2 0 0 1 2-2h3.01c.11 0 .215.021.323.031v3.302a2 2 0 0 0 2 2h3.302c.01.108.031.213.031.323v5.677ZM11.65 8.874a.667.667 0 0 1-.023.942l-2.393 2.276a2 2 0 0 1-2.817-.011l-1.027-.916a.667.667 0 0 1 .888-.996l1.057.943a.668.668 0 0 0 .97.026l2.4-2.287a.666.666 0 0 1 .945.023Z"/>
  </g>
  <defs>
    <clipPath id="a">
      <path fill="#fff" d="M.5 0h16v16H.5z"/>
    </clipPath>
  </defs>
</svg>
