<svg xmlns="http://www.w3.org/2000/svg" width="17" height="16" fill="none" viewBox="0 0 17 16">
  <g clip-path="url(#a)">
    <path fill="#4D4D4D" d="M16.162 7.345a1.69 1.69 0 0 0-1.367-.687H14.5V5.333A3.337 3.337 0 0 0 11.167 2H7.796a.677.677 0 0 1-.298-.07L5.395.878A2.01 2.01 0 0 0 4.5.668H3.167A2.668 2.668 0 0 0 .5 3.332V12a3.337 3.337 0 0 0 3.333 3.333h8.372c1.484 0 2.767-.954 3.202-2.404l1.021-4.078a1.69 1.69 0 0 0-.266-1.506ZM1.833 12V3.333C1.833 2.598 2.431 2 3.167 2H4.5a.68.68 0 0 1 .298.07l2.103 1.052c.276.138.586.21.895.21h3.37c1.103 0 2 .898 2 2v1.325H6.244c-1.133 0-2.145.72-2.526 1.814l-1.46 4.758A1.99 1.99 0 0 1 1.833 12Zm13.31-3.502-1.022 4.077A1.988 1.988 0 0 1 12.205 14H3.833c-.138 0-.274-.014-.404-.041l1.556-5.073a1.334 1.334 0 0 1 1.259-.895h8.552c.161 0 .255.094.297.15a.388.388 0 0 1 .05.357Z"/>
  </g>
  <defs>
    <clipPath id="a">
      <path fill="#fff" d="M.5 0h16v16H.5z"/>
    </clipPath>
  </defs>
</svg>
