<svg width="209" height="45" viewBox="0 0 209 45" fill="none" xmlns="http://www.w3.org/2000/svg">
<path d="M9.42941 34.1562C8.02145 34.1562 6.81803 33.8341 5.81676 33.1921C4.81549 32.5502 3.96405 31.6505 3.26007 30.4907C2.93425 29.9299 2.6322 29.1519 2.35394 28.1567C2.0733 27.1616 1.81168 26.0447 1.5691 24.8038C1.32651 23.5652 1.12197 22.2885 0.960248 20.976C0.798523 19.6634 0.672473 18.4058 0.582097 17.203C0.491721 16.0003 0.446533 14.955 0.446533 14.0672C0.446533 12.9265 0.598745 11.9099 0.905547 11.0126C1.21235 10.1177 1.67612 9.40655 2.29924 8.88153C2.92235 8.35652 3.70244 8.09401 4.63949 8.09401C5.66692 8.09401 6.43036 8.38038 6.92505 8.94835C7.42212 9.51871 7.786 10.3563 8.02145 11.4589C8.11183 12.0197 8.20696 12.695 8.30447 13.4826C8.40436 14.2701 8.50663 15.0982 8.61603 15.9668C8.72543 16.8355 8.84197 17.6946 8.96802 18.5466C9.09407 19.3985 9.22012 20.1813 9.34617 20.8948C9.47222 21.6108 9.59827 22.2026 9.72432 22.6727C9.88605 23.3075 10.1072 23.823 10.3879 24.2215C10.6661 24.6201 10.9967 24.8181 11.3749 24.8181C11.753 24.8181 12.0693 24.601 12.3214 24.1666C12.5735 23.7323 12.79 23.181 12.9707 22.5104C13.1681 21.7134 13.3679 20.8137 13.5653 19.809C13.7627 18.8043 13.9791 17.7686 14.2146 16.6995C14.4476 15.6327 14.6926 14.5875 14.9447 13.5637C15.1968 12.5423 15.4775 11.6235 15.7843 10.8074C16.1814 9.90292 16.7546 9.16552 17.5014 8.59516C18.2506 8.0248 19.3018 7.74082 20.6527 7.74082C21.8799 7.74082 22.8264 7.98901 23.4947 8.48777C24.163 8.98653 24.6577 9.60462 24.9836 10.3468C25.181 10.8718 25.3926 11.5281 25.6186 12.3156C25.8445 13.1031 26.0728 13.9503 26.3083 14.8548C26.5413 15.7592 26.7625 16.6613 26.9718 17.5562C27.1787 18.4511 27.369 19.284 27.5402 20.0548C27.7115 20.8232 27.8518 21.4533 27.9588 21.9425C28.1396 22.7395 28.3512 23.3815 28.5938 23.8707C28.8364 24.3599 29.1313 24.6033 29.4738 24.6033C29.9067 24.6033 30.2444 24.4005 30.4893 23.9924C30.7319 23.5843 30.9721 23.0283 31.2052 22.3219C31.386 21.7778 31.5715 21.0499 31.7594 20.1359C31.9496 19.2219 32.1375 18.2173 32.3278 17.1219C32.518 16.0265 32.7012 14.9455 32.8819 13.8763C33.0627 12.8096 33.2339 11.8574 33.3956 11.0245C33.7024 10.0294 34.121 9.28723 34.6538 8.79801C35.1865 8.30879 35.9285 8.06537 36.887 8.06537C37.5006 8.06537 38.0857 8.17515 38.6469 8.39231C39.2059 8.60948 39.7077 8.9579 40.1477 9.43757C40.59 9.91724 40.9373 10.564 41.1894 11.3777C41.4415 12.1915 41.5675 13.189 41.5675 14.3656C41.5675 15.1268 41.5223 15.9859 41.4319 16.9453C41.3416 17.9046 41.2108 18.9141 41.0395 19.9737C40.8683 21.0332 40.6638 22.0833 40.4307 23.1238C40.1952 24.1642 39.9431 25.1642 39.672 26.1235C39.4009 27.0828 39.1179 27.942 38.8206 28.7032C38.5233 29.4645 38.2212 30.0874 37.9144 30.5766C37.1034 31.6815 36.1426 32.5358 35.0319 33.142C33.9212 33.7481 32.656 34.0512 31.229 34.0512C29.7854 34.0512 28.5582 33.6622 27.5498 32.8843C26.539 32.1063 25.8088 31.2185 25.3569 30.2234C25.1048 29.4096 24.848 28.4908 24.5864 27.4671C24.3248 26.4457 24.0631 25.3956 23.8015 24.317C23.5399 23.2407 23.2926 22.2098 23.0571 21.2218C22.8217 20.2362 22.6052 19.3794 22.4078 18.6564C22.2628 17.95 22.0749 17.3534 21.8394 16.8641C21.604 16.3749 21.2353 16.1315 20.7288 16.1315C20.1865 16.1315 19.7632 16.394 19.4564 16.919C19.1496 17.444 18.907 18.0502 18.7262 18.7375C18.6002 19.2816 18.4456 19.9593 18.2672 20.7731C18.0865 21.5869 17.8962 22.4556 17.6988 23.3791C17.499 24.3027 17.2969 25.2214 17.0899 26.1354C16.883 27.0494 16.6785 27.8918 16.4811 28.6603C16.2813 29.4287 16.0934 30.0587 15.9127 30.5479C15.4251 31.5264 14.5999 32.3712 13.4369 33.0871C12.2858 33.7983 10.9468 34.1562 9.42941 34.1562Z" fill="#FFD100"/>
<path d="M48.2054 35.3518C47.3754 35.3518 46.7261 35.1347 46.2575 34.7003C45.789 34.266 45.4275 33.6241 45.1754 32.7721C45.066 32.3569 44.9733 31.7674 44.8924 31.0085C44.8115 30.2496 44.7378 29.3523 44.676 28.3214C44.6118 27.2905 44.5642 26.145 44.5261 24.8873C44.4905 23.6297 44.4714 22.2861 44.4714 20.8566C44.4714 19.6443 44.5119 18.4034 44.5927 17.1362C44.6736 15.869 44.7949 14.6114 44.959 13.3632C45.1231 12.1151 45.3252 10.8981 45.5678 9.71201C45.8104 8.52595 46.0958 7.4091 46.4193 6.35907C46.7451 5.30904 47.1137 4.35924 47.5276 3.50729C48.1221 2.34987 48.8261 1.47643 49.6371 0.886985C50.4481 0.299923 51.359 0.00400543 52.3698 0.00400543C53.4329 0.00400543 54.2725 0.361971 54.8861 1.07551C55.4997 1.79144 55.8065 2.81761 55.8065 4.1564C55.8065 4.7721 55.7755 5.44984 55.7113 6.19202C55.6471 6.9342 55.5663 7.67638 55.4687 8.41856C55.3689 9.16074 55.269 9.88145 55.1715 10.5759C55.0716 11.2727 54.9859 11.898 54.9146 12.4492C54.8432 13.0005 54.8052 13.4325 54.8052 13.7379C54.8052 14.2271 54.9217 14.4706 55.1572 14.4706C55.3736 14.4706 55.6757 14.2773 56.0633 13.8859C56.451 13.4969 56.9932 13.053 57.6877 12.5542C58.3822 12.0579 59.2836 11.614 60.3942 11.2226C61.5025 10.8336 62.8796 10.6379 64.5206 10.6379C66.5041 10.6379 68.1594 11.0007 69.4865 11.7238C70.8112 12.4469 71.8624 13.4158 72.6378 14.6281C73.4131 15.8404 73.9625 17.1887 74.2883 18.6731C74.6141 20.1574 74.7759 21.668 74.7759 23.2073C74.7759 23.9686 74.7354 24.7823 74.6546 25.651C74.5737 26.5196 74.4548 27.3788 74.3026 28.2307C74.148 29.0827 73.9696 29.8774 73.7603 30.6195C73.5534 31.3617 73.3322 31.987 73.0968 32.4929C72.6996 33.2351 72.1621 33.7959 71.4867 34.1753C70.8112 34.5548 69.9669 34.7457 68.9561 34.7457C68.1451 34.7457 67.5173 34.5786 67.0749 34.2445C66.6325 33.9104 66.3043 33.4522 66.0879 32.8723C66.0165 32.4929 65.9785 31.9893 65.9785 31.3665C65.9785 30.7412 65.9999 30.0325 66.0451 29.2354C66.0903 28.4383 66.1259 27.6102 66.1545 26.7511C66.1807 25.892 66.1759 25.0544 66.1402 24.2406C66.1045 23.3719 66.0047 22.52 65.8429 21.6871C65.6812 20.8543 65.4196 20.0978 65.0581 19.42C64.6966 18.7423 64.1971 18.1982 63.5574 17.7901C62.9176 17.382 62.109 17.1792 61.1363 17.1792C59.9447 17.1792 58.903 17.382 58.0112 17.7901C57.1193 18.1982 56.3654 18.7184 55.7518 19.3508C55.1382 19.9856 54.6554 20.649 54.3034 21.3459C53.9514 22.0427 53.7397 22.6894 53.6684 23.286C53.5423 24.3719 53.421 25.367 53.3021 26.2715C53.1856 27.1759 53.0666 28.004 52.9501 28.7557C52.8336 29.5075 52.7028 30.1948 52.5577 30.82C52.4126 31.4452 52.2414 32.0275 52.044 32.5716C51.7015 33.4761 51.2092 34.1634 50.5694 34.6359C49.932 35.1156 49.1424 35.3518 48.2054 35.3518Z" fill="#FFD100"/>
<path d="M94.0948 36.0033C91.0102 36.0033 88.3322 35.5332 86.0585 34.5906C83.7849 33.6503 82.0321 32.2017 80.7953 30.2473C79.5586 28.2928 78.9426 25.8133 78.9426 22.8087C78.9426 20.3101 79.3565 18.1242 80.1865 16.2508C81.0165 14.3775 82.1652 12.812 83.6374 11.5543C85.1072 10.2967 86.8077 9.34688 88.7389 8.70255C90.6701 8.0606 92.7249 7.73843 94.9082 7.73843C96.3875 7.73843 97.8121 7.88877 99.1844 8.18708C100.554 8.48538 101.777 8.95312 102.852 9.58553C103.924 10.2203 104.773 11.0341 105.397 12.0292C106.02 13.0244 106.331 14.2295 106.331 15.6399C106.331 16.9978 106.055 18.1194 105.506 19.0072C104.957 19.8949 104.207 20.6013 103.261 21.1263C102.314 21.6513 101.232 22.0499 100.014 22.3219C98.7968 22.594 97.5291 22.8111 96.2139 22.9734C95.4743 23.1357 94.5776 23.2813 93.5217 23.4077C92.4657 23.5342 91.4335 23.6344 90.4227 23.706C89.4119 23.7776 88.6105 23.8158 88.0135 23.8158C87.4712 23.8158 87.0979 23.885 86.8909 24.0187C86.684 24.1547 86.5794 24.4124 86.5794 24.7919C86.5794 25.1713 86.6888 25.6247 86.9052 26.1497C87.1216 26.6748 87.4284 27.1735 87.8256 27.6437C88.5653 28.5123 89.4215 29.097 90.3966 29.3953C91.3717 29.6936 92.5799 29.8439 94.0235 29.8439C95.3577 29.8439 96.6254 29.6673 97.8264 29.3142C99.0251 28.961 100.152 28.6078 101.208 28.2546C102.264 27.9014 103.251 27.7248 104.172 27.7248C105.054 27.7248 105.753 27.8918 106.269 28.2259C106.783 28.56 107.04 29.2092 107.04 30.1661C107.04 31.0181 106.702 31.8008 106.024 32.5144C105.349 33.2303 104.419 33.8436 103.237 34.3615C102.055 34.8769 100.68 35.2802 99.1107 35.569C97.5315 35.8577 95.8643 36.0033 94.0948 36.0033ZM92.147 20.2815C93.4099 20.2815 94.599 20.1503 95.7192 19.8878C96.837 19.6252 97.7479 19.1909 98.4519 18.5848C99.1559 17.9786 99.5079 17.1505 99.5079 16.1005C99.5079 14.8333 99.0512 13.9002 98.1427 13.3036C97.2318 12.707 95.9737 12.4087 94.3683 12.4087C93.4123 12.4087 92.4823 12.5757 91.581 12.9122C90.6796 13.2463 89.8662 13.7093 89.1456 14.2963C88.4249 14.8858 87.8518 15.5588 87.4284 16.32C87.0051 17.0813 86.7934 17.8855 86.7934 18.7351C86.7934 19.2052 86.9742 19.5489 87.3357 19.766C87.6972 19.9832 88.2704 20.124 89.0528 20.1861C89.8353 20.2505 90.8675 20.2815 92.147 20.2815Z" fill="#FFD100"/>
<path d="M125.726 36.0033C122.642 36.0033 119.964 35.5332 117.69 34.5906C115.416 33.6503 113.664 32.2017 112.427 30.2473C111.19 28.2928 110.574 25.8133 110.574 22.8087C110.574 20.3101 110.988 18.1242 111.818 16.2508C112.648 14.3775 113.797 12.812 115.269 11.5543C116.739 10.2967 118.439 9.34688 120.37 8.70255C122.302 8.0606 124.357 7.73843 126.54 7.73843C128.019 7.73843 129.444 7.88877 130.816 8.18708C132.186 8.48538 133.408 8.95312 134.483 9.58553C135.556 10.2203 136.405 11.0341 137.028 12.0292C137.651 13.0244 137.96 14.2295 137.96 15.6399C137.96 16.9978 137.685 18.1194 137.135 19.0072C136.583 19.8949 135.837 20.6013 134.89 21.1263C133.943 21.6513 132.861 22.0499 131.644 22.3219C130.426 22.594 129.158 22.8111 127.841 22.9734C127.101 23.1357 126.204 23.2813 125.149 23.4077C124.093 23.5342 123.06 23.6344 122.05 23.706C121.039 23.7776 120.237 23.8158 119.643 23.8158C119.1 23.8158 118.727 23.885 118.52 24.0187C118.313 24.1547 118.209 24.4124 118.209 24.7919C118.209 25.1713 118.318 25.6247 118.534 26.1497C118.751 26.6748 119.058 27.1735 119.455 27.6437C120.194 28.5123 121.051 29.097 122.026 29.3953C123.001 29.6936 124.209 29.8439 125.653 29.8439C126.987 29.8439 128.255 29.6673 129.456 29.3142C130.654 28.961 131.782 28.6078 132.838 28.2546C133.894 27.9014 134.881 27.7248 135.801 27.7248C136.683 27.7248 137.385 27.8918 137.899 28.2259C138.412 28.56 138.669 29.2092 138.669 30.1661C138.669 31.0181 138.331 31.8008 137.654 32.5144C136.978 33.2303 136.048 33.8436 134.866 34.3615C133.684 34.8769 132.31 35.2802 130.74 35.569C129.163 35.8577 127.494 36.0033 125.726 36.0033ZM123.779 20.2815C125.041 20.2815 126.231 20.1503 127.351 19.8878C128.469 19.6252 129.38 19.1909 130.083 18.5848C130.787 17.9786 131.139 17.1505 131.139 16.1005C131.139 14.8333 130.683 13.9002 129.772 13.3036C128.861 12.707 127.603 12.4087 125.998 12.4087C125.041 12.4087 124.112 12.5757 123.21 12.9122C122.309 13.2463 121.495 13.7093 120.775 14.2963C120.052 14.8858 119.481 15.5588 119.058 16.32C118.634 17.0813 118.423 17.8855 118.423 18.7351C118.423 19.2052 118.603 19.5489 118.965 19.766C119.326 19.9832 119.897 20.124 120.682 20.1861C121.465 20.2505 122.497 20.2815 123.779 20.2815Z" fill="#FFD100"/>
<path d="M145.856 34.5906C144.829 34.5906 144.004 34.3543 143.381 33.8842C142.757 33.414 142.303 32.6456 142.013 31.5765C141.942 31.1255 141.887 30.6172 141.851 30.0563C141.816 29.4955 141.797 28.8584 141.797 28.1424C141.797 27.4265 141.823 26.6533 141.877 25.8204C142.058 22.1811 142.807 19.0859 144.123 16.5348C145.44 13.9813 147.269 12.0364 149.617 10.6976C151.962 9.35882 154.72 8.68823 157.895 8.68823C161.087 8.68823 163.853 9.33018 166.189 10.6165C168.524 11.9028 170.332 13.8429 171.614 16.4394C172.893 19.0358 173.535 22.3076 173.535 26.2548C173.535 26.942 173.516 27.5816 173.48 28.1687C173.445 28.7581 173.39 29.2998 173.319 29.7986C173.247 30.2974 173.157 30.7532 173.048 31.1708C172.705 32.3473 172.203 33.2112 171.547 33.7649C170.888 34.3161 170.053 34.5929 169.045 34.5929C167.979 34.5929 167.159 34.4259 166.583 34.0918C166.005 33.7577 165.596 33.2685 165.351 32.6265C165.109 31.9846 164.933 31.2018 164.823 30.2783C164.769 29.0469 164.712 27.9491 164.647 26.9802C164.583 26.0113 164.507 25.1474 164.417 24.3862C164.326 23.6249 164.226 22.9161 164.119 22.2551C164.01 21.5941 163.877 20.9473 163.713 20.3149C163.316 18.7041 162.697 17.4918 161.86 16.6756C161.021 15.8618 159.781 15.4538 158.14 15.4538C156.59 15.4538 155.332 15.8929 154.366 16.7711C153.4 17.6493 152.639 18.8664 152.08 20.4223C151.845 21.1096 151.643 21.8303 151.472 22.5796C151.3 23.3314 151.151 24.1237 151.024 24.9565C150.898 25.7894 150.794 26.6676 150.713 27.5912C150.632 28.5147 150.546 29.4908 150.456 30.5241C150.347 31.6099 150.078 32.4475 149.645 33.0346C149.212 33.6241 148.67 34.0297 148.021 34.2565C147.374 34.4784 146.651 34.5906 145.856 34.5906Z" fill="#FFD100"/>
<path d="M182.09 44.8546C181.115 44.8546 180.33 44.5873 179.735 44.0528C179.141 43.5182 178.844 42.881 178.844 42.1388C178.844 41.3251 179.127 40.6044 179.695 39.9815C180.263 39.3563 181.044 38.8265 182.035 38.3921C182.937 37.848 183.852 37.2657 184.782 36.6405C185.712 36.0153 186.568 35.3829 187.353 34.7409C188.138 34.0989 188.773 33.488 189.261 32.9081C189.748 32.3282 189.991 31.8223 189.991 31.388C189.991 31.0085 189.72 30.5837 189.18 30.1112C188.637 29.6411 187.746 29.0707 186.502 28.4002C185.491 27.8393 184.499 27.1473 183.527 26.324C182.551 25.5006 181.641 24.601 180.794 23.6225C179.945 22.6441 179.203 21.6322 178.561 20.5822C177.921 19.5322 177.414 18.4821 177.046 17.4321C176.677 16.3821 176.491 15.3774 176.491 14.418C176.491 13.6568 176.667 12.9743 177.019 12.3681C177.371 11.762 177.849 11.2871 178.454 10.9434C179.058 10.5998 179.738 10.4279 180.497 10.4279C181.669 10.4279 182.661 10.6904 183.474 11.2155C184.285 11.7405 185.015 12.6378 185.667 13.9026C186.407 15.7855 187.196 17.5323 188.036 19.1432C188.875 20.754 189.717 22.1024 190.566 23.1882C191.035 23.7848 191.522 24.2931 192.027 24.7083C192.531 25.126 192.947 25.3336 193.27 25.3336C193.775 25.3336 194.253 25.0973 194.705 24.6272C195.156 24.1571 195.516 23.6416 195.787 23.0784C196.633 21.6847 197.383 20.1407 198.032 18.4487C198.681 16.7568 199.33 15.0791 199.98 13.4134C200.484 12.454 201.081 11.6665 201.766 11.0508C202.451 10.4351 203.262 10.1272 204.201 10.1272C205.626 10.1272 206.622 10.49 207.191 11.2131C207.759 11.9385 208.042 12.8788 208.042 14.0362C208.042 15.122 207.857 16.3224 207.488 17.635C207.117 18.9475 206.622 20.3101 205.999 21.7205C205.376 23.1333 204.682 24.527 203.916 25.9016C203.148 27.2785 202.356 28.5672 201.535 29.77C200.715 30.9727 199.934 32.018 199.195 32.9057C197.968 34.371 196.638 35.8148 195.204 37.2371C193.77 38.657 192.305 39.9433 190.807 41.0936C189.308 42.2438 187.822 43.1578 186.342 43.8356C184.858 44.5157 183.443 44.8546 182.09 44.8546Z" fill="#FFD100"/>
</svg>
