<svg xmlns="http://www.w3.org/2000/svg" width="18" height="18" fill="none" viewBox="0 0 18 18">
  <g clip-path="url(#a)">
    <path fill="#202020" d="M5.25 10.5a.75.75 0 0 1-.75.75h-.75a.75.75 0 1 1 0-1.5h.75a.75.75 0 0 1 .75.75Zm3-.75H7.5a.75.75 0 0 0 0 1.5h.75a.75.75 0 1 0 0-1.5Zm-3.75 3h-.75a.75.75 0 1 0 0 1.5h.75a.75.75 0 1 0 0-1.5Zm3.75 0H7.5a.75.75 0 1 0 0 1.5h.75a.75.75 0 1 0 0-1.5Zm-3.75-9h-.75a.75.75 0 0 0 0 1.5h.75a.75.75 0 0 0 0-1.5Zm3.75 0H7.5a.75.75 0 0 0 0 1.5h.75a.75.75 0 0 0 0-1.5Zm-3.75 3h-.75a.75.75 0 0 0 0 1.5h.75a.75.75 0 0 0 0-1.5Zm3.75 0H7.5a.75.75 0 0 0 0 1.5h.75a.75.75 0 0 0 0-1.5ZM18 7.5v6.75A3.754 3.754 0 0 1 14.25 18H3.75A3.755 3.755 0 0 1 0 14.25V3.75A3.755 3.755 0 0 1 3.75 0h4.5A3.754 3.754 0 0 1 12 3.75h2.25A3.754 3.754 0 0 1 18 7.5Zm-14.25 9h6.75V3.75A2.25 2.25 0 0 0 8.25 1.5h-4.5A2.25 2.25 0 0 0 1.5 3.75v10.5a2.25 2.25 0 0 0 2.25 2.25Zm12.75-9a2.25 2.25 0 0 0-2.25-2.25H12V16.5h2.25a2.25 2.25 0 0 0 2.25-2.25V7.5Zm-2.25 2.25a.75.75 0 1 0 0 1.5.75.75 0 0 0 0-1.5Zm0 3a.75.75 0 1 0 0 1.5.75.75 0 0 0 0-1.5Zm0-6a.75.75 0 1 0 0 1.5.75.75 0 0 0 0-1.5Z"/>
  </g>
  <defs>
    <clipPath id="a">
      <path fill="#fff" d="M0 0h18v18H0z"/>
    </clipPath>
  </defs>
</svg>
