<svg xmlns="http://www.w3.org/2000/svg" width="16" height="16" fill="none" viewBox="0 0 16 16">
  <g clip-path="url(#a)">
    <path fill="#4D4D4D" d="M10.667 9.333A.667.667 0 0 1 10 10h-.667a.667.667 0 0 1 0-1.333H10c.368 0 .667.298.667.666Zm2-.666H12A.667.667 0 0 0 12 10h.667a.667.667 0 0 0 0-1.333ZM10 11.333h-.667a.667.667 0 0 0 0 1.334H10a.667.667 0 0 0 0-1.334Zm2.667 0H12a.667.667 0 0 0 0 1.334h.667a.667.667 0 0 0 0-1.334Zm-2.667-8h-.667a.667.667 0 0 0 0 1.334H10a.667.667 0 0 0 0-1.334Zm2.667 0H12a.667.667 0 0 0 0 1.334h.667a.667.667 0 0 0 0-1.334ZM10 6h-.667a.667.667 0 0 0 0 1.333H10A.667.667 0 0 0 10 6Zm2.667 0H12a.667.667 0 0 0 0 1.333h.667a.667.667 0 0 0 0-1.333ZM16 3.333v9.334A3.337 3.337 0 0 1 12.667 16H3.333A3.337 3.337 0 0 1 0 12.667V6.172c0-.9.372-1.776 1.02-2.4l1.26-1.213a1.993 1.993 0 0 1 2.774 0L6 3.471v-.138A3.337 3.337 0 0 1 9.333 0h3.334A3.337 3.337 0 0 1 16 3.333ZM6 6.172a2.01 2.01 0 0 0-.613-1.44L4.13 3.518a.662.662 0 0 0-.924 0l-1.26 1.213c-.39.375-.613.9-.613 1.441v6.495c0 1.102.898 2 2 2H6V6.172Zm8.667-2.839c0-1.102-.898-2-2-2H9.333c-1.102 0-2 .898-2 2v11.334h5.334c1.102 0 2-.898 2-2V3.333ZM4 8.667h-.667a.667.667 0 0 0 0 1.333H4a.667.667 0 0 0 0-1.333ZM4 6h-.667a.667.667 0 0 0 0 1.333H4A.667.667 0 0 0 4 6Zm0 5.333h-.667a.667.667 0 0 0 0 1.334H4a.667.667 0 0 0 0-1.334Z"/>
  </g>
  <defs>
    <clipPath id="a">
      <path fill="#fff" d="M0 0h16v16H0z"/>
    </clipPath>
  </defs>
</svg>
