<svg xmlns="http://www.w3.org/2000/svg" width="15" height="15" fill="none" viewBox="0 0 15 15">
  <g clip-path="url(#a)">
    <path fill="#4D4D4D" d="M12.5 0h-10A2.5 2.5 0 0 0 0 2.5V10a2.5 2.5 0 0 0 2.5 2.5h1.813l2.781 2.352a.625.625 0 0 0 .808 0l2.785-2.352H12.5A2.5 2.5 0 0 0 15 10V2.5A2.5 2.5 0 0 0 12.5 0Zm1.25 10a1.25 1.25 0 0 1-1.25 1.25h-1.813a1.25 1.25 0 0 0-.806.296L7.5 13.556l-2.38-2.01a1.25 1.25 0 0 0-.808-.296H2.5A1.25 1.25 0 0 1 1.25 10V2.5A1.25 1.25 0 0 1 2.5 1.25h10a1.25 1.25 0 0 1 1.25 1.25V10Z"/>
    <path fill="#4D4D4D" d="M4.375 4.375H7.5a.625.625 0 0 0 0-1.25H4.375a.625.625 0 0 0 0 1.25Zm6.25 1.25h-6.25a.625.625 0 0 0 0 1.25h6.25a.625.625 0 1 0 0-1.25Zm0 2.5h-6.25a.625.625 0 0 0 0 1.25h6.25a.625.625 0 1 0 0-1.25Z"/>
  </g>
  <defs>
    <clipPath id="a">
      <path fill="#fff" d="M0 0h15v15H0z"/>
    </clipPath>
  </defs>
</svg>
