<svg xmlns="http://www.w3.org/2000/svg" width="16" height="16" fill="none" viewBox="0 0 16 16">
  <g clip-path="url(#a)">
    <path fill="#4D4D4D" d="M13.333 0H2.667A2.667 2.667 0 0 0 0 2.667v8a2.667 2.667 0 0 0 2.667 2.666H4.6l2.967 2.509a.667.667 0 0 0 .862 0l2.971-2.509h1.933A2.667 2.667 0 0 0 16 10.667v-8A2.667 2.667 0 0 0 13.333 0Zm1.334 10.667A1.333 1.333 0 0 1 13.333 12H11.4c-.315 0-.62.112-.86.315L8 14.46l-2.538-2.145A1.333 1.333 0 0 0 4.6 12H2.667a1.334 1.334 0 0 1-1.334-1.333v-8a1.333 1.333 0 0 1 1.334-1.334h10.666a1.333 1.333 0 0 1 1.334 1.334v8Z"/>
    <path fill="#4D4D4D" d="M4.667 4.667H8a.667.667 0 1 0 0-1.334H4.667a.667.667 0 0 0 0 1.334ZM11.333 6H4.667a.667.667 0 0 0 0 1.333h6.666a.667.667 0 1 0 0-1.333Zm0 2.667H4.667a.667.667 0 0 0 0 1.333h6.666a.667.667 0 0 0 0-1.333Z"/>
  </g>
  <defs>
    <clipPath id="a">
      <path fill="#fff" d="M0 0h16v16H0z"/>
    </clipPath>
  </defs>
</svg>
