<svg xmlns="http://www.w3.org/2000/svg" width="11" height="11" fill="none" viewBox="0 0 11 11">
  <g clip-path="url(#a)">
    <path fill="#4D4D4D" d="M8.592 9.32a.458.458 0 0 1-.037.647l-.727.649a1.329 1.329 0 0 1-.946.384 1.38 1.38 0 0 1-.979-.404l-.708-.63a.458.458 0 0 1 .61-.685l.612.548V6.417a.458.458 0 1 1 .916 0v3.412l.612-.546a.458.458 0 0 1 .647.037Zm-.179-5.946a.499.499 0 0 1-.33-.337 3.667 3.667 0 0 0-7.1.386 3.51 3.51 0 0 0 .367 2.374 2.497 2.497 0 0 0-1.324 2.59 2.678 2.678 0 0 0 2.579 2.155h1.062a.459.459 0 0 0 0-.917H2.605A1.746 1.746 0 0 1 .934 8.258a1.59 1.59 0 0 1 .84-1.65.913.913 0 0 0 .364-1.23 2.75 2.75 0 1 1 5.069-2.069 1.42 1.42 0 0 0 .937.94 2.737 2.737 0 0 1 1.93 2.847 2.464 2.464 0 0 1-.508 1.333.458.458 0 1 0 .726.559 3.422 3.422 0 0 0 .697-1.82 3.649 3.649 0 0 0-2.576-3.794Z"/>
  </g>
  <defs>
    <clipPath id="a">
      <path fill="#fff" d="M0 0h11v11H0z"/>
    </clipPath>
  </defs>
</svg>
