<svg xmlns="http://www.w3.org/2000/svg" width="16" height="16" fill="none" viewBox="0 0 16 16">
  <g clip-path="url(#a)">
    <path fill="#4D4D4D" d="M15.662 7.345a1.69 1.69 0 0 0-1.367-.687H14V5.333A3.337 3.337 0 0 0 10.667 2H7.296a.677.677 0 0 1-.298-.07L4.895.878A2.01 2.01 0 0 0 4 .668H2.667A2.668 2.668 0 0 0 0 3.332V12a3.337 3.337 0 0 0 3.333 3.333h8.372c1.484 0 2.767-.954 3.202-2.404l1.021-4.078a1.69 1.69 0 0 0-.266-1.506ZM1.333 12V3.333C1.333 2.598 1.931 2 2.667 2H4a.68.68 0 0 1 .298.07l2.103 1.052c.276.138.586.21.895.21h3.37c1.103 0 2 .898 2 2v1.325H5.744c-1.133 0-2.145.72-2.526 1.814l-1.46 4.758A1.99 1.99 0 0 1 1.333 12Zm13.31-3.502-1.022 4.077A1.988 1.988 0 0 1 11.705 14H3.333c-.138 0-.274-.014-.404-.041l1.556-5.073a1.334 1.334 0 0 1 1.259-.895h8.552c.161 0 .255.094.297.15a.388.388 0 0 1 .05.357Z"/>
  </g>
  <defs>
    <clipPath id="a">
      <path fill="#fff" d="M0 0h16v16H0z"/>
    </clipPath>
  </defs>
</svg>
