<svg xmlns="http://www.w3.org/2000/svg" width="222" height="24" fill="none" viewBox="0 0 222 24">
  <path fill="#4D4D4D" d="M14.803 4.774a3.334 3.334 0 0 0-2.732-.72l-2.548.463A2.665 2.665 0 0 0 8 5.376a2.661 2.661 0 0 0-1.523-.86l-2.548-.462A3.334 3.334 0 0 0 0 7.334v8.527a3.332 3.332 0 0 0 2.737 3.28l4.19.762a5.998 5.998 0 0 0 2.146 0l4.19-.762A3.332 3.332 0 0 0 16 15.86V7.333c0-.991-.437-1.924-1.197-2.559Zm-7.47 13.844c-.056-.008-4.357-.79-4.357-.79a2 2 0 0 1-1.643-1.967V7.333c0-.594.262-1.154.719-1.535a1.993 1.993 0 0 1 1.64-.432l2.547.463a1.333 1.333 0 0 1 1.095 1.312V18.62v-.001Zm7.334-2.757a2 2 0 0 1-1.642 1.968s-4.302.781-4.358.79V7.14c0-.645.46-1.196 1.094-1.312l2.548-.464a1.991 1.991 0 0 1 1.639.432c.457.382.719.941.719 1.536v8.528ZM5.989 8.15a.667.667 0 0 1-.655.547c-.04 0-2.12-.375-2.12-.375a.667.667 0 0 1 .239-1.312l2 .364a.667.667 0 0 1 .536.776Zm0 2.636a.667.667 0 0 1-.655.548c-.04 0-2.12-.375-2.12-.375a.667.667 0 0 1 .239-1.312l2 .363a.667.667 0 0 1 .536.776Zm0 2.667a.667.667 0 0 1-.655.547c-.04 0-2.12-.374-2.12-.374a.667.667 0 1 1 .239-1.312l2 .363a.667.667 0 0 1 .536.776Zm7.334-5.905a.667.667 0 0 1-.537.776s-2.08.374-2.12.374a.667.667 0 0 1-.119-1.322l2-.364a.67.67 0 0 1 .776.536Zm0 2.637a.667.667 0 0 1-.537.775s-2.08.375-2.12.375a.667.667 0 0 1-.119-1.323l2-.363a.669.669 0 0 1 .776.536Zm0 2.667a.667.667 0 0 1-.537.775s-2.08.375-2.12.375a.667.667 0 0 1-.119-1.323l2-.363a.669.669 0 0 1 .776.536Zm-1.334 2.909a.667.667 0 0 1-.536.775s-.748.132-.787.132a.667.667 0 0 1-.119-1.322l.667-.122a.666.666 0 0 1 .775.537Zm-7.333.147a.667.667 0 0 1-.655.548c-.04 0-.787-.132-.787-.132a.667.667 0 1 1 .239-1.312l.666.121a.667.667 0 0 1 .537.775ZM43.574 16h-1.93l.013-.997h1.917c.66 0 1.21-.137 1.65-.412.44-.28.77-.669.99-1.168.225-.504.337-1.092.337-1.765v-.565c0-.529-.064-.998-.19-1.409a2.853 2.853 0 0 0-.56-1.047 2.36 2.36 0 0 0-.9-.654 3.098 3.098 0 0 0-1.213-.222h-2.082V6.758h2.082c.605 0 1.157.101 1.657.304.5.2.929.49 1.288.87.364.377.643.834.838 1.371.195.533.292 1.134.292 1.803v.552c0 .669-.097 1.272-.292 1.81a3.686 3.686 0 0 1-2.165 2.234c-.511.199-1.089.298-1.732.298Zm-1.276-9.242V16h-1.225V6.758h1.225Zm7.467 5.884v-.146c0-.495.072-.954.216-1.377.144-.428.351-.798.622-1.111.271-.318.599-.563.984-.737a3.054 3.054 0 0 1 1.295-.266c.482 0 .916.089 1.301.266.39.174.72.42.99.737.276.313.485.683.629 1.11.144.424.216.883.216 1.378v.146c0 .495-.072.954-.216 1.378a3.296 3.296 0 0 1-.629 1.11 2.88 2.88 0 0 1-.983.737 3.09 3.09 0 0 1-1.295.26c-.483 0-.917-.087-1.302-.26a2.945 2.945 0 0 1-.99-.737 3.355 3.355 0 0 1-.622-1.11 4.252 4.252 0 0 1-.216-1.378Zm1.175-.146v.146c0 .343.04.667.12.971.08.3.201.567.362.8.165.233.37.417.616.552.245.132.53.197.857.197.321 0 .603-.066.844-.197.245-.135.448-.32.61-.552.16-.233.28-.5.361-.8.085-.304.127-.628.127-.97v-.147c0-.338-.042-.658-.127-.958a2.47 2.47 0 0 0-.368-.807 1.75 1.75 0 0 0-.61-.558 1.708 1.708 0 0 0-.85-.203c-.322 0-.605.067-.85.203a1.826 1.826 0 0 0-.61.558 2.55 2.55 0 0 0-.362.807c-.08.3-.12.62-.12.958Zm11.53 2.171V6.25h1.18V16h-1.079l-.102-1.333Zm-4.622-2.025v-.133c0-.525.064-1.001.19-1.428.132-.432.316-.802.553-1.111a2.428 2.428 0 0 1 1.974-.965c.432 0 .808.076 1.13.228.326.149.6.366.825.654.229.284.409.627.54 1.028.13.403.222.858.273 1.365v.584a5.982 5.982 0 0 1-.273 1.359 3.206 3.206 0 0 1-.54 1.028c-.224.284-.5.501-.825.654-.326.148-.707.222-1.143.222-.402 0-.77-.087-1.104-.26a2.607 2.607 0 0 1-.857-.73 3.557 3.557 0 0 1-.552-1.105 4.861 4.861 0 0 1-.19-1.39Zm1.181-.133v.133c0 .343.034.665.102.965.072.3.181.565.33.793.148.229.336.409.565.54.228.127.501.19.818.19.39 0 .71-.082.959-.247.254-.165.457-.383.61-.654.152-.27.27-.565.355-.882v-1.53a3.394 3.394 0 0 0-.222-.673 2.07 2.07 0 0 0-.369-.584 1.591 1.591 0 0 0-.552-.412 1.788 1.788 0 0 0-.768-.153c-.322 0-.599.068-.831.203a1.621 1.621 0 0 0-.565.546 2.525 2.525 0 0 0-.33.8c-.068.3-.102.622-.102.965Zm11.149 2.317V11.29c0-.27-.055-.506-.165-.705a1.08 1.08 0 0 0-.482-.47c-.216-.11-.483-.164-.8-.164-.296 0-.557.05-.781.152a1.36 1.36 0 0 0-.52.4.877.877 0 0 0-.185.533h-1.174c0-.245.064-.489.19-.73.127-.241.31-.459.546-.654a2.73 2.73 0 0 1 .864-.47 3.403 3.403 0 0 1 1.13-.177c.499 0 .939.085 1.32.254.385.17.685.425.901.768.22.338.33.764.33 1.276v3.199c0 .228.02.472.057.73.043.258.104.48.185.666V16h-1.225a2.193 2.193 0 0 1-.14-.54 4.359 4.359 0 0 1-.051-.634Zm.203-2.99.013.825h-1.187c-.334 0-.633.028-.895.083-.263.05-.483.129-.66.235a1.109 1.109 0 0 0-.407.4 1.06 1.06 0 0 0-.14.552c0 .216.05.412.147.59.097.178.243.32.438.425.199.102.442.153.73.153a1.981 1.981 0 0 0 1.606-.787c.165-.22.254-.434.266-.642l.502.565a1.69 1.69 0 0 1-.242.59 2.822 2.822 0 0 1-1.3 1.112c-.297.127-.631.19-1.004.19-.465 0-.874-.091-1.225-.273a2.095 2.095 0 0 1-.812-.73 1.932 1.932 0 0 1-.286-1.035c0-.368.072-.691.216-.97.144-.284.351-.52.622-.705.27-.19.597-.335.977-.432a5.179 5.179 0 0 1 1.276-.146h1.365Zm3.5-2.704h1.18v7.687c0 .419-.067.774-.202 1.066-.131.292-.33.512-.597.66-.262.153-.594.229-.996.229a2.4 2.4 0 0 1-.369-.032 2.545 2.545 0 0 1-.362-.076l.007-.946c.08.017.171.03.273.038.101.013.19.02.266.02a.91.91 0 0 0 .438-.096.593.593 0 0 0 .267-.305c.064-.14.095-.325.095-.558V9.132Zm-.12-1.822c0-.19.059-.351.177-.482.119-.132.29-.197.514-.197.23 0 .403.065.521.197a.694.694 0 0 1 .178.482.68.68 0 0 1-.178.47c-.118.127-.292.19-.52.19-.225 0-.396-.063-.515-.19a.677.677 0 0 1-.177-.47Zm7.412 5.332v-.146c0-.495.072-.954.216-1.377.144-.428.352-.798.622-1.111.271-.318.6-.563.984-.737a3.054 3.054 0 0 1 1.295-.266c.483 0 .916.089 1.301.266.39.174.72.42.99.737.276.313.485.683.63 1.11.143.424.215.883.215 1.378v.146c0 .495-.072.954-.216 1.378a3.296 3.296 0 0 1-.628 1.11 2.88 2.88 0 0 1-.984.737 3.09 3.09 0 0 1-1.295.26c-.483 0-.916-.087-1.301-.26a2.945 2.945 0 0 1-.99-.737 3.355 3.355 0 0 1-.623-1.11 4.252 4.252 0 0 1-.216-1.378Zm1.175-.146v.146c0 .343.04.667.12.971.08.3.201.567.362.8.165.233.37.417.616.552.245.132.531.197.857.197.321 0 .603-.066.844-.197.245-.135.449-.32.61-.552.16-.233.28-.5.361-.8.085-.304.127-.628.127-.97v-.147c0-.338-.042-.658-.127-.958a2.47 2.47 0 0 0-.368-.807 1.75 1.75 0 0 0-.61-.558 1.708 1.708 0 0 0-.85-.203 1.73 1.73 0 0 0-.85.203 1.826 1.826 0 0 0-.61.558 2.55 2.55 0 0 0-.362.807c-.08.3-.12.62-.12.958Zm11.65-3.364h1.067v6.722c0 .605-.123 1.121-.368 1.549a2.398 2.398 0 0 1-1.029.971c-.436.224-.94.336-1.51.336-.238 0-.517-.038-.838-.114a3.378 3.378 0 0 1-.94-.374 2.348 2.348 0 0 1-.768-.705l.616-.698c.288.347.588.588.901.724.317.135.63.203.94.203.372 0 .694-.07.964-.21.271-.14.48-.347.629-.622.152-.27.228-.605.228-1.003v-5.268l.108-1.511Zm-4.729 3.51v-.133c0-.525.062-1.001.184-1.428.127-.432.307-.802.54-1.111a2.422 2.422 0 0 1 1.987-.965c.431 0 .808.076 1.13.228.325.149.6.366.825.654.228.284.408.627.54 1.028.13.403.222.858.272 1.365v.584a5.987 5.987 0 0 1-.273 1.359 3.206 3.206 0 0 1-.54 1.028 2.26 2.26 0 0 1-.824.654c-.326.148-.707.222-1.143.222-.41 0-.783-.087-1.117-.26a2.544 2.544 0 0 1-.85-.73 3.457 3.457 0 0 1-.547-1.105 5.02 5.02 0 0 1-.184-1.39Zm1.175-.133v.133c0 .343.033.665.101.965.072.3.18.565.324.793.148.229.336.409.565.54.228.127.501.19.819.19.389 0 .71-.082.965-.247.253-.165.454-.383.602-.654.153-.27.271-.565.356-.882v-1.53a3.125 3.125 0 0 0-.216-.673 2.072 2.072 0 0 0-.368-.584 1.59 1.59 0 0 0-.552-.412 1.831 1.831 0 0 0-.775-.153c-.321 0-.599.068-.831.203a1.621 1.621 0 0 0-.565.546 2.624 2.624 0 0 0-.324.8c-.068.3-.101.622-.101.965Zm9.48-2.412v.774l-3.099 1.187v-.774l3.098-1.187Zm-1.01-3.847V16H97.74V6.25h1.174Zm2.44 6.392v-.146c0-.495.072-.954.216-1.377.144-.428.351-.798.622-1.111.271-.318.599-.563.984-.737a3.052 3.052 0 0 1 1.295-.266c.482 0 .916.089 1.301.266.389.174.719.42.99.737.275.313.485.683.629 1.11.143.424.215.883.215 1.378v.146c0 .495-.072.954-.215 1.378a3.3 3.3 0 0 1-.629 1.11 2.882 2.882 0 0 1-.984.737 3.09 3.09 0 0 1-1.295.26c-.482 0-.916-.087-1.301-.26a2.944 2.944 0 0 1-.99-.737 3.355 3.355 0 0 1-.622-1.11 4.25 4.25 0 0 1-.216-1.378Zm1.174-.146v.146c0 .343.04.667.121.971.08.3.201.567.362.8.165.233.37.417.615.552.246.132.531.197.857.197.322 0 .603-.066.845-.197a1.78 1.78 0 0 0 .609-.552c.161-.233.281-.5.362-.8a3.64 3.64 0 0 0 .127-.97v-.147c0-.338-.043-.658-.127-.958a2.482 2.482 0 0 0-.368-.807 1.749 1.749 0 0 0-.61-.558 1.708 1.708 0 0 0-.85-.203 1.73 1.73 0 0 0-.851.203 1.827 1.827 0 0 0-.609.558 2.537 2.537 0 0 0-.362.807c-.081.3-.121.62-.121.958Zm11.2 1.682a.99.99 0 0 0-.114-.47c-.072-.148-.222-.28-.451-.4-.224-.122-.563-.228-1.016-.317a8.08 8.08 0 0 1-1.034-.285 3.143 3.143 0 0 1-.781-.4 1.682 1.682 0 0 1-.489-.553 1.543 1.543 0 0 1-.171-.742c0-.271.059-.527.178-.768a2.05 2.05 0 0 1 .514-.641c.224-.187.493-.333.806-.438a3.256 3.256 0 0 1 1.047-.16c.55 0 1.02.098 1.409.293.39.195.688.455.895.78.208.322.312.68.312 1.073h-1.175c0-.19-.057-.374-.171-.552a1.265 1.265 0 0 0-.489-.45c-.212-.119-.472-.178-.781-.178-.326 0-.59.05-.793.152a1.017 1.017 0 0 0-.438.375.941.941 0 0 0-.07.825.76.76 0 0 0 .241.273c.114.08.275.156.483.228.207.072.471.144.793.216.563.127 1.026.28 1.39.457.364.178.635.396.813.654.177.258.266.571.266.94 0 .3-.063.575-.19.825a1.83 1.83 0 0 1-.54.647 2.674 2.674 0 0 1-.838.419 3.738 3.738 0 0 1-1.085.146c-.605 0-1.117-.108-1.536-.324-.419-.216-.736-.495-.952-.838a2.003 2.003 0 0 1-.324-1.085h1.181c.017.321.11.577.279.768.169.186.377.32.622.4.245.076.489.114.73.114.322 0 .59-.042.806-.127a1.13 1.13 0 0 0 .502-.349.81.81 0 0 0 .171-.508Zm8.483.857V16h-4.996v-.965h4.996Zm-.184-5.072L117.482 16h-.717v-.863l4.513-6.005h.749v.831Zm-.521-.831v.971h-4.69v-.971h4.69Zm5.437 6.995c-.479 0-.912-.08-1.302-.241a2.944 2.944 0 0 1-.996-.692 3.077 3.077 0 0 1-.635-1.054 3.867 3.867 0 0 1-.222-1.333v-.267c0-.558.082-1.055.247-1.491.165-.44.39-.813.673-1.117.284-.305.605-.536.965-.692.36-.157.732-.235 1.117-.235.491 0 .914.085 1.27.254.359.17.654.406.882.71.229.301.398.657.508 1.067.11.406.165.85.165 1.333v.527h-5.129v-.959h3.955v-.088a2.932 2.932 0 0 0-.191-.889 1.598 1.598 0 0 0-.508-.711c-.232-.186-.55-.28-.952-.28a1.599 1.599 0 0 0-1.314.667c-.161.22-.285.489-.374.806a4.08 4.08 0 0 0-.134 1.098v.267c0 .326.045.633.134.92.093.284.226.534.4.75.177.215.391.385.641.507.254.123.541.184.863.184.415 0 .766-.084 1.054-.253.288-.17.539-.396.755-.68l.711.565a3.265 3.265 0 0 1-.565.641c-.228.204-.51.369-.844.495-.33.128-.722.191-1.174.191Zm5.867-5.529V16h-1.174V9.132h1.111l.063 1.466Zm-.279 1.708-.489-.02c.005-.47.074-.903.21-1.3.135-.403.326-.752.571-1.048.245-.296.537-.525.876-.686a2.587 2.587 0 0 1 1.136-.247 2.8 2.8 0 0 1 .914.14c.271.088.502.232.692.431.195.2.343.457.445.775.101.313.152.696.152 1.148V16h-1.181v-4.513c0-.36-.053-.648-.158-.864a.978.978 0 0 0-.464-.475 1.663 1.663 0 0 0-.749-.153 1.75 1.75 0 0 0-.8.184 1.905 1.905 0 0 0-.615.508 2.53 2.53 0 0 0-.4.743c-.093.275-.14.567-.14.876Zm8.216-3.174V16h-1.18V9.132h1.18Zm-1.269-1.822a.71.71 0 0 1 .171-.482c.119-.132.292-.197.521-.197.224 0 .395.065.514.197a.679.679 0 0 1 .184.482.663.663 0 0 1-.184.47c-.119.127-.29.19-.514.19-.229 0-.402-.063-.521-.19a.692.692 0 0 1-.171-.47Zm6.655 8.817c-.478 0-.912-.08-1.301-.241a2.938 2.938 0 0 1-.997-.692 3.077 3.077 0 0 1-.635-1.054 3.867 3.867 0 0 1-.222-1.333v-.267c0-.558.083-1.055.248-1.491.165-.44.389-.813.672-1.117.284-.305.606-.536.965-.692.36-.157.732-.235 1.117-.235.491 0 .915.085 1.27.254.36.17.654.406.882.71.229.301.398.657.508 1.067.11.406.165.85.165 1.333v.527h-5.129v-.959h3.955v-.088a2.932 2.932 0 0 0-.191-.889 1.596 1.596 0 0 0-.507-.711c-.233-.186-.551-.28-.953-.28a1.599 1.599 0 0 0-1.313.667c-.161.22-.286.489-.375.806a4.081 4.081 0 0 0-.133 1.098v.267c0 .326.044.633.133.92.093.284.226.534.4.75.178.215.391.385.641.507.254.123.542.184.863.184.415 0 .766-.084 1.054-.253.288-.17.54-.396.755-.68l.711.565a3.265 3.265 0 0 1-.565.641c-.228.204-.51.369-.844.495-.33.128-.721.191-1.174.191Z"/>
</svg>
