<svg xmlns="http://www.w3.org/2000/svg" width="16" height="16" fill="none" viewBox="0 0 16 16">
  <g clip-path="url(#a)">
    <path fill="#4D4D4D" d="M15.414 6.046 10.357.989a3.339 3.339 0 0 0-4.714 0L.586 6.046A1.985 1.985 0 0 0 0 7.46v6.545a2 2 0 0 0 2 2h12a2 2 0 0 0 2-2V7.46a1.986 1.986 0 0 0-.586-1.414ZM10 14.67H6v-2.62a2 2 0 1 1 4 0v2.622Zm4.667-.666a.667.667 0 0 1-.667.666h-2.667v-2.62a3.333 3.333 0 1 0-6.666 0v2.622H2a.667.667 0 0 1-.667-.666V7.46a.67.67 0 0 1 .196-.471l5.056-5.056a2.005 2.005 0 0 1 2.83 0l5.056 5.058a.672.672 0 0 1 .196.469v6.545Z"/>
  </g>
  <defs>
    <clipPath id="a">
      <path fill="#fff" d="M0 0h16v16H0z"/>
    </clipPath>
  </defs>
</svg>
