<svg xmlns="http://www.w3.org/2000/svg" width="16" height="16" fill="none" viewBox="0 0 16 16">
  <g clip-path="url(#a)">
    <path fill="#4D4D4D" d="M9.952 6H12V1.365C12 .613 11.387 0 10.635 0h-5.27C4.613 0 4 .612 4 1.365V6h2.135l1.222 1.078a1.021 1.021 0 0 0 1.343.005l1.252-1.082V6Zm-1.918-.104-1.395-1.23h-1.3l.026-3.333 5.302.032v3.302H9.456L8.034 5.896Zm-.7 8.77V16H6v-1.333A.667.667 0 0 0 5.333 14H2c-.368 0-.667.3-.667.667V16H0v-1.333c0-1.103.897-2 2-2h3.333c1.103 0 2 .897 2 2Zm8.666 0V16h-1.333v-1.333A.667.667 0 0 0 14 14h-3.333c-.368 0-.667.3-.667.667V16H8.667v-1.333c0-1.103.897-2 2-2H14c1.103 0 2 .897 2 2ZM3.667 12A2.336 2.336 0 0 0 6 9.667a2.336 2.336 0 0 0-2.333-2.334 2.336 2.336 0 0 0-2.334 2.334A2.336 2.336 0 0 0 3.667 12Zm0-3.333a1.001 1.001 0 0 1 0 2 1.001 1.001 0 0 1 0-2Zm6.333 1A2.336 2.336 0 0 0 12.333 12a2.336 2.336 0 0 0 2.334-2.333 2.336 2.336 0 0 0-2.334-2.334A2.336 2.336 0 0 0 10 9.667Zm2.333-1a1.001 1.001 0 0 1 0 2 1.001 1.001 0 0 1 0-2Z"/>
  </g>
  <defs>
    <clipPath id="a">
      <path fill="#fff" d="M0 0h16v16H0z"/>
    </clipPath>
  </defs>
</svg>
