<svg xmlns="http://www.w3.org/2000/svg" width="60" height="118" fill="none" viewBox="0 0 60 118">
  <g clip-path="url(#a)">
    <path fill="#073C5F" d="M47.134 27.801c6.781 0 12.278-5.518 12.278-12.324 0-6.807-5.497-12.325-12.278-12.325-6.781 0-12.278 5.518-12.278 12.325 0 6.806 5.497 12.324 12.278 12.324Z"/>
    <path fill="#073C5F" d="M46.876 47.28c7.25 0 13.128-7.141 13.128-15.95 0-8.808-5.878-15.95-13.128-15.95s-13.128 7.142-13.128 15.95c0 8.809 5.877 15.95 13.128 15.95Z"/>
    <path fill="#FFDCCB" d="M12.342 31.465c-1.47-2.182-2.953-4.875-3.948-7.921-.262-.807-.527-1.635-.485-2.48.025-.456-.077-3.618-.793-4.482-.067-.082-.159-.167-.258-.142a.238.238 0 0 0-.142.114c-.382.657-.442 1.556-.768 2.356-1.894-1.127-2.815-1.333-4.974-1.766-.407-.082-.818.263-.882.291-.142.064-.092.274-.021.409.432.817.549 1.016 1.012 1.816.528.913 1.101 1.837 1.955 2.452.4.288.857.5 1.239.814 1.105.902.984 2.366 1.243 3.774.672 3.657 1.324 6.919 2.294 9.862"/>
    <path fill="#39272F" d="M51.853 82.768 56.647 118H10.614l10.742-38.314 30.497 3.082Z"/>
    <path fill="#F67F7D" d="M49.265 39.301c2.054 1.678 4.228 3.554 4.812 6.145.248 1.105.18 2.256.113 3.387-.18 2.956-.361 5.913-.538 8.873-.184 3-.365 6.02.025 8.998.347 2.67-.999 12.808-.361 15.424.11.44.209.927.01 1.336-.159.334-.488.551-.8.746-5.576 3.53-17.815 3.853-19.38 3.835-1.2-.014-2.344-.473-3.456-.924-3.763-1.528-7.537-3.067-11.053-5.107.506-1.276.892-2.598 1.278-3.916 2.659-9.08 5.318-18.163 7.4-27.393.566-2.509 1.09-5.032 1.957-7.452.758-2.121 1.774-4.136 2.783-6.151.156-.313.326-.64.613-.843.251-.178.563-.238.867-.284a20.948 20.948 0 0 1 6.646 0"/>
    <path fill="#073C5F" d="M29.046 81.958a51.264 51.264 0 0 0 1.653 5.149c.507 1.33 1.087 2.665 2.043 3.714.092.103.198.206.333.238a.713.713 0 0 0 .343-.036c2.125-.572 4.242-1.212 6.228-2.164 1.986-.952 3.841-2.235 5.243-3.934-.835-.373-1.756-.49-2.655-.661a21.325 21.325 0 0 1-4.114-1.23 3.497 3.497 0 0 1-.68-.344c-.22-.157-.403-.356-.587-.558l-2.011-2.207"/>
    <path fill="#052D44" d="M9.56 57.255c-.192.288-3.74 6.162-2.784 9.627.96 3.465 1.533 7.126 7 7.701 4.578.484 10.26-.77 10.26-.77l4.603 9.339s6.33 1.442 8.249-1.54c0 0-.096-9.047-4.316-13.091-4.22-4.045-10.837-7.318-10.837-7.318l-12.18-3.948h.004Z"/>
    <path fill="#FFDCCB" d="m31.075 50.034 1.023 17.136 5.562-.963-1.342-16.43-5.243.257Z"/>
    <path fill="#E8AE9E" d="m50.126 39.799-2.11-1.603-.287-7.51-9.687-1.35-.096 6.259-2.446.156 3.693 7.257 9.559-1.702 1.374-1.507Z"/>
    <path fill="#39272F" d="M35.77 24.766c.357 2.843.71 5.69.835 8.55.05 1.188.056 2.4-.27 3.544-.523 1.834-1.848 3.323-3.225 4.641-1.051 1.006-2.28 2.005-3.731 2.044-.737.017-1.452-.217-2.139-.48-1.844-.715-3.586-1.674-5.325-2.626l-6.16-3.39c-.574-.317-1.193-.683-1.41-1.305-.332-.949.422-1.887 1.003-2.704 1.27-1.795 1.862-3.974 2.432-6.102"/>
    <path fill="#FAAF3B" d="M21.066 35.499S7.159 55.329 8.596 57.447c1.438 2.118 6.267 8.248 10.774 9.403 4.507 1.155 13.298.31 13.298.31s-1.342-20.3-1.629-23.669c-.287-3.369-2.11-6.93-4.893-7.797s-5.084-.192-5.084-.192l.004-.003Z"/>
    <path fill="#C66C5D" d="m38.042 29.336 9.687 1.347v.043a10.922 10.922 0 0 1-9.761 3.532l.074-4.922Z"/>
    <path fill="#E8AE9E" d="M42.574 32.922h.797c5.105 0 9.244-4.154 9.244-9.279v-9.52c0-5.125-4.139-9.28-9.244-9.28h-.797c-5.105 0-9.244 4.155-9.244 9.28v9.52c0 5.125 4.139 9.28 9.244 9.28Z"/>
    <path fill="#073C5F" d="M45.243 4.464c-.65 1.119-1.532 2.079-2.421 3.017-.705.742-1.423 1.489-2.287 2.029-1.77 1.109-3.951 1.269-6.037 1.39-.152.007-.318.02-.435.117-.138.11-.177.298-.21.472a30.028 30.028 0 0 0-.392 3.28c-1.246-1.524-2.21-3.496-1.795-5.426.188-.867.637-1.653 1.083-2.42 1.225-2.118 2.486-4.275 4.316-5.896C37.67.497 38.393.004 39.204 0c.732-.004 1.401.387 2.032.771L45.07 3.1"/>
    <path fill="#073C5F" d="M42.79 5.924c1.179 3.956 4.808 7.058 8.886 7.598.248.032.503.06.716.188.247.15.396.416.524.676.87 1.766 1.281 3.852 2.726 5.181.435-.64.141-1.5-.117-2.228a17.648 17.648 0 0 1-1.01-5.448c-.038-1.475.103-2.971-.24-4.407-.379-1.567-1.31-2.935-2.298-4.204C50.983 2 49.712.686 48.097.64c-.96-.029-6.699 1.09-7.431 1.713-.733.622-1.303 1.41-1.866 2.192"/>
    <path fill="#E8AE9E" d="M56.665 16.383a3.834 3.834 0 0 1 .021 5.409 3.799 3.799 0 0 1-5.388.021c-1.495-1.489 3.873-6.92 5.367-5.434v.004Z"/>
    <path fill="#C66C5D" d="M56.091 18.54c.443.64.259 1.535-.41 2-.67.466-1.569.328-2.011-.312-.443-.64 1.979-2.324 2.421-1.688Z"/>
    <path fill="#F67F7D" d="M54.781 24.57c.73 0 1.32-.593 1.32-1.325s-.59-1.325-1.32-1.325c-.73 0-1.32.593-1.32 1.325s.59 1.326 1.32 1.326Z"/>
    <path fill="#E56A6A" d="M45.045 68.133c.73-4.307 6.153-16.983 6.67-18.188l2.252 2.583-.315 5.178c-.184 3-.365 6.02.025 8.998.347 2.67-.999 12.808-.361 15.424.081.341.159.707.102 1.041-3.115-3.895-8.94-11.706-8.373-15.036Zm6.713-18.291s-.018.039-.043.1l-.34-.392.383.288v.004Z"/>
    <path fill="#E8AE9E" d="M26.727 69.868s-8.377 1.41-9.464.963c-1.087-.448-2.684-4.3-4.794-5.456a23.591 23.591 0 0 1-1.777-1.066c-.517-.344-1.221-.017-1.278.601-.067.75-.007 1.628.503 2.143 1.023 1.027 1.933 2.1 1.678 2.935-.255.835-1.583 1.155-1.774 1.155-.191 0-2.471-4.033-2.726-4.868-.255-.836-1.919 1.09-1.342 3.337.577 2.246 1.533 5.71 4.858 7.057 3.324 1.347 17.581.064 17.581.064s2.493-3.337-1.469-6.865h.004Z"/>
    <path fill="#F67F7D" d="M53.556 41.498c1.92.511 7.418 4.044 4.667 10.59-2.43 5.778-5.403 10.704-8.798 16.454-1.845 3.124-2.079 3.23-4.245 6.134-.624.835-1.29 1.709-2.245 2.125-.768.334-12.753 1.492-16.577 1.46-.226 0-.47-.01-.637-.167-.141-.131-.184-.33-.223-.518-.439-2.2-.878-4.453-.549-6.67.075-.51.202-1.028.52-1.43.26-.326.624-.547.985-.753 2.882-1.66 10.44-2.178 10.983-2.818 4.46-5.235 7.212-12.133 9.977-18.44 0 0 2.428-6.963 6.139-5.968h.003Z"/>
    <path fill="#FAAF3B" d="M28.642 36.942s4.667.579 6.394 5.07a274.548 274.548 0 0 0 3.58 8.793s-8.887.9-9.783-.128c-.895-1.027-.19-13.735-.19-13.735Zm-6.627-.967c-2.203-.818-4.415-1.638-6.451-2.811-2.036-1.173-2.38-1.72-3.608-3.732-2.556 2.31-3.147 3.622-4.935 5.246-.106.096-.227.21-.227.355 0 .103.06.2.117.284a34.519 34.519 0 0 0 10.64 10.154"/>
    <path fill="#FFDCCB" d="m24.799 37.543.744.065c4.771.414 8.973-3.133 9.385-7.921l.465-5.393c.412-4.789-3.121-9.006-7.892-9.42l-.744-.065c-4.771-.414-8.973 3.133-9.385 7.922l-.465 5.392c-.412 4.789 3.121 9.006 7.892 9.42Z"/>
    <path fill="#39272F" d="M19.03 17.577c.637 2.676 3.735 3.916 6.48 3.984 1.883.05 3.699-.75 5.582-.817.262-.011.539 0 .765.127.177.1.308.263.428.427 1.293 1.798 1.374 4.183 1.26 6.397-.02.38-.042.77.068 1.137a1.638 1.638 0 0 0 1.58 1.13 9.58 9.58 0 0 1 .838-3.216c.376-.818.875-1.614.935-2.51.046-.653-.149-1.296-.382-1.908-.436-1.14-1.013-2.224-1.587-3.301-.45-.842-.906-1.695-1.547-2.41-1.214-1.35-2.956-2.06-4.574-2.885-1.232-.63-3.742-1.233-6.359.401-1.412.885-2.177 1.458-3.537 2.42"/>
    <path fill="#FFDCCB" d="M15.766 25.69a2.825 2.825 0 0 0-1.087 3.838 2.804 2.804 0 0 0 3.823 1.091c1.356-.757-1.38-5.69-2.736-4.929Z"/>
    <path fill="#E8AE9E" d="M15.748 27.34c-.44.365-.489 1.037-.106 1.502.382.466 1.048.544 1.49.182.443-.363-.945-2.047-1.384-1.681v-.004Z"/>
    <path fill="#FFDCCB" d="M37.408 26.565a2.828 2.828 0 0 1-.53 3.955 2.803 2.803 0 0 1-3.941-.533c-.942-1.24 3.53-4.663 4.471-3.422Z"/>
    <path fill="#E8AE9E" d="M36.767 28.086c.259.511.032 1.148-.502 1.418-.535.27-1.18.078-1.438-.434s1.682-1.496 1.94-.984Z"/>
    <path fill="#fff" d="M26.129 34.795c.57-.238 1.02-.71 1.232-1.293a.604.604 0 0 0-.361-.779c-.316-.117-3.148-.053-3.456.079a.611.611 0 0 0-.326.796 2.225 2.225 0 0 0 2.91 1.2v-.003Z"/>
    <path fill="#39272F" d="m28.49 27.887.056-.008a.678.678 0 0 0 .578-.765l-.203-1.485a.677.677 0 0 0-.762-.58l-.056.007a.678.678 0 0 0-.579.765l.204 1.486c.05.371.392.631.762.58Zm-6.546.461L22 28.34a.678.678 0 0 0 .578-.765l-.203-1.486a.677.677 0 0 0-.762-.58l-.056.008a.678.678 0 0 0-.578.765l.203 1.485c.05.372.392.632.762.58Zm4.361-5.391 3.357.178s-.864-.92-2.008-.753c-1.143.167-1.352.575-1.352.575h.003Zm-3.465.345-3.18 1.091s.58-1.123 1.724-1.276c1.148-.152 1.456.185 1.456.185Z"/>
    <path fill="#FFDCCB" d="M28.713 37.02a2.546 2.546 0 0 1-2.52 2.288h-1.13a2.545 2.545 0 0 1-2.535-2.818v-.035l6.185.561v.004Z"/>
    <path fill="#fff" d="M41.059 27.94a2.708 2.708 0 0 1-1.629-1.418.735.735 0 0 1 .347-.977c.365-.175 3.781-.416 4.167-.295.386.12.602.533.482.92a2.691 2.691 0 0 1-3.367 1.773v-.003Z"/>
    <path fill="#39272F" d="M38.782 13.878c-.103-.946-.184-1.024-1.126-.92-.941.102-3.01.23-2.907 1.175m8.922-.519c.043-.948.15-1.03 1.452-.973 1.303.057 5.183.497 5.14 1.446m-4.057 4.723h.124a.724.724 0 0 0 .723-.725v-1.73c0-.4-.324-.725-.723-.725h-.124a.723.723 0 0 0-.722.725v1.73c0 .4.323.725.722.725Zm-8.203.157h.064a.72.72 0 0 0 .719-.722v-1.603a.72.72 0 0 0-.72-.721h-.063a.72.72 0 0 0-.718.721v1.603a.72.72 0 0 0 .718.722Zm-16.459-1.856s-.86 5.068-2.585 6.61c-1.724 1.546-1.94 4.016-1.94 4.016s-1.232-1.08-1.324-3.337c-.092-2.256-.276-3.863.832-5.437 1.108-1.574 2.708-2.811 3.476-2.811.769 0 1.785-.092 1.54.956v.003Z"/>
    <path fill="#F29E2F" d="M30.703 43.122c.216 1.4.428 2.797.644 4.197.216 1.4.528 2.793.301 4.179-.11.672.913.96 1.023.284.24-1.482-.025-2.942-.251-4.41-.227-1.468-.464-3.02-.698-4.531-.102-.675-1.126-.388-1.023.284l.004-.003ZM12.08 57.56a21.664 21.664 0 0 0 10.409 7.496c.651.217.927-.814.283-1.027A20.452 20.452 0 0 1 13 57.024c-.407-.54-1.33-.007-.916.537h-.004Zm12.314-16.581a16.523 16.523 0 0 1-.91 5.327c-.092.274.106.583.372.657.29.082.559-.1.654-.373a17.48 17.48 0 0 0 .95-5.611c0-.686-1.06-.686-1.063 0h-.003Z"/>
    <path fill="#E56A6A" d="M42.046 53.9c-1.395 2.26-1.915 4.88-2.591 7.41-.305 1.133-.588 2.367-1.257 3.347-.294.434-.684.786-1.186.946-.58.185-1.108.256-1.604.643-.538.42.216 1.17.75.754.447-.349 1.165-.328 1.672-.587.506-.26.895-.664 1.218-1.116.68-.956 1.005-2.146 1.313-3.262.715-2.58 1.179-5.288 2.606-7.598.361-.587-.556-1.12-.917-.537h-.004Zm-2.722-8.902 5.434-.572c.287-.029.531-.224.531-.533 0-.267-.244-.562-.53-.533l-5.435.572c-.287.028-.531.224-.531.533 0 .267.244.561.53.533Z"/>
    <path fill="#E56A6A" d="m35.805 41.547 1.791 1.923c.574.615 1.214 1.212 1.696 1.905.481.693.64 1.421.81 2.196.192.885.344 1.777.457 2.672.085.672 1.148.68 1.063 0a33.588 33.588 0 0 0-.46-2.786c-.181-.863-.383-1.741-.868-2.49-.485-.75-1.115-1.358-1.71-1.995-.676-.725-1.353-1.45-2.029-2.178-.467-.501-1.218.252-.75.753Z"/>
    <path fill="#C66C5D" d="m39.572 21.77 1.38 1.98s-1.773.299-2.021-.15c-.248-.444.64-1.83.64-1.83Z"/>
    <path fill="#E8AE9E" d="m24.677 28.935 1.38 1.98s-1.773.298-2.02-.15c-.249-.444.64-1.83.64-1.83Z"/>
  </g>
  <defs>
    <clipPath id="a">
      <path fill="#fff" d="M0 0h60v118H0z"/>
    </clipPath>
  </defs>
</svg>
