<svg xmlns="http://www.w3.org/2000/svg" width="16" height="16" fill="none" viewBox="0 0 16 16">
  <g clip-path="url(#a)">
    <path fill="#4D4D4D" d="M3.667 7.333A2.336 2.336 0 0 0 6 5a2.336 2.336 0 0 0-2.333-2.333A2.336 2.336 0 0 0 1.333 5a2.336 2.336 0 0 0 2.334 2.333Zm0-3.333a1.001 1.001 0 0 1 0 2 1.001 1.001 0 0 1 0-2Zm2.22 5.543a.667.667 0 0 1-.925.182 2.315 2.315 0 0 0-1.295-.392 2.33 2.33 0 0 0-2.32 2.073.667.667 0 0 1-1.325-.147A3.662 3.662 0 0 1 3.667 8c.729 0 1.433.214 2.038.618.306.206.388.62.182.926Zm4.446-4.876a2.336 2.336 0 0 0 2.334-2.334A2.336 2.336 0 0 0 10.333 0 2.336 2.336 0 0 0 8 2.333a2.336 2.336 0 0 0 2.333 2.334Zm0-3.334a1.001 1.001 0 0 1 0 2 1.001 1.001 0 0 1 0-2Zm1 5.334a4.673 4.673 0 0 0-4.666 4.666A4.673 4.673 0 0 0 11.333 16 4.673 4.673 0 0 0 16 11.333a4.673 4.673 0 0 0-4.667-4.666Zm0 8A3.337 3.337 0 0 1 8 11.333 3.337 3.337 0 0 1 11.333 8a3.337 3.337 0 0 1 3.334 3.333 3.337 3.337 0 0 1-3.334 3.334Zm2.148-4.142a.667.667 0 0 1-.019.943l-1.475 1.416a1.566 1.566 0 0 1-1.102.447c-.401 0-.802-.15-1.109-.449l-.755-.74a.667.667 0 1 1 .934-.951l.754.738a.25.25 0 0 0 .348-.001l1.482-1.423a.667.667 0 0 1 .942.02Z"/>
  </g>
  <defs>
    <clipPath id="a">
      <path fill="#fff" d="M0 0h16v16H0z"/>
    </clipPath>
  </defs>
</svg>
