<svg width="16" height="16" viewBox="0 0 16 16" fill="none" xmlns="http://www.w3.org/2000/svg">
<path d="M10.6667 9.33333C10.6667 9.70133 10.368 10 10 10H9.33333C8.96533 10 8.66667 9.70133 8.66667 9.33333C8.66667 8.96533 8.96533 8.66667 9.33333 8.66667H10C10.368 8.66667 10.6667 8.96533 10.6667 9.33333ZM12.6667 8.66667H12C11.632 8.66667 11.3333 8.96533 11.3333 9.33333C11.3333 9.70133 11.632 10 12 10H12.6667C13.0347 10 13.3333 9.70133 13.3333 9.33333C13.3333 8.96533 13.0347 8.66667 12.6667 8.66667ZM10 11.3333H9.33333C8.96533 11.3333 8.66667 11.632 8.66667 12C8.66667 12.368 8.96533 12.6667 9.33333 12.6667H10C10.368 12.6667 10.6667 12.368 10.6667 12C10.6667 11.632 10.368 11.3333 10 11.3333ZM12.6667 11.3333H12C11.632 11.3333 11.3333 11.632 11.3333 12C11.3333 12.368 11.632 12.6667 12 12.6667H12.6667C13.0347 12.6667 13.3333 12.368 13.3333 12C13.3333 11.632 13.0347 11.3333 12.6667 11.3333ZM10 3.33333H9.33333C8.96533 3.33333 8.66667 3.632 8.66667 4C8.66667 4.368 8.96533 4.66667 9.33333 4.66667H10C10.368 4.66667 10.6667 4.368 10.6667 4C10.6667 3.632 10.368 3.33333 10 3.33333ZM12.6667 3.33333H12C11.632 3.33333 11.3333 3.632 11.3333 4C11.3333 4.368 11.632 4.66667 12 4.66667H12.6667C13.0347 4.66667 13.3333 4.368 13.3333 4C13.3333 3.632 13.0347 3.33333 12.6667 3.33333ZM10 6H9.33333C8.96533 6 8.66667 6.29867 8.66667 6.66667C8.66667 7.03467 8.96533 7.33333 9.33333 7.33333H10C10.368 7.33333 10.6667 7.03467 10.6667 6.66667C10.6667 6.29867 10.368 6 10 6ZM12.6667 6H12C11.632 6 11.3333 6.29867 11.3333 6.66667C11.3333 7.03467 11.632 7.33333 12 7.33333H12.6667C13.0347 7.33333 13.3333 7.03467 13.3333 6.66667C13.3333 6.29867 13.0347 6 12.6667 6ZM16 3.33333V12.6667C16 14.5047 14.5047 16 12.6667 16H3.33333C1.49533 16 0 14.5047 0 12.6667V6.172C0 5.27133 0.372 4.396 1.02067 3.77133L2.27933 2.55933C3.05733 1.80933 4.276 1.81 5.054 2.55933L6 3.47067V3.33333C6 1.49533 7.49533 0 9.33333 0H12.6667C14.5047 0 16 1.49533 16 3.33333ZM6 6.172C6 5.63133 5.77667 5.10667 5.38733 4.73133L4.12867 3.51933C3.99933 3.394 3.83267 3.332 3.66667 3.332C3.50067 3.332 3.334 3.394 3.20467 3.51933L1.946 4.73133C1.55667 5.106 1.33333 5.63133 1.33333 6.172V12.6667C1.33333 13.7693 2.23067 14.6667 3.33333 14.6667H6V6.172ZM14.6667 3.33333C14.6667 2.23067 13.7693 1.33333 12.6667 1.33333H9.33333C8.23067 1.33333 7.33333 2.23067 7.33333 3.33333V14.6667H12.6667C13.7693 14.6667 14.6667 13.7693 14.6667 12.6667V3.33333ZM4 8.66667H3.33333C2.96533 8.66667 2.66667 8.96533 2.66667 9.33333C2.66667 9.70133 2.96533 10 3.33333 10H4C4.368 10 4.66667 9.70133 4.66667 9.33333C4.66667 8.96533 4.368 8.66667 4 8.66667ZM4 6H3.33333C2.96533 6 2.66667 6.29867 2.66667 6.66667C2.66667 7.03467 2.96533 7.33333 3.33333 7.33333H4C4.368 7.33333 4.66667 7.03467 4.66667 6.66667C4.66667 6.29867 4.368 6 4 6ZM4 11.3333H3.33333C2.96533 11.3333 2.66667 11.632 2.66667 12C2.66667 12.368 2.96533 12.6667 3.33333 12.6667H4C4.368 12.6667 4.66667 12.368 4.66667 12C4.66667 11.632 4.368 11.3333 4 11.3333Z" fill="#4D4D4D"/>
</svg>
