<svg width="16" height="17" viewBox="0 0 16 17" fill="none" xmlns="http://www.w3.org/2000/svg">
<g clip-path="url(#clip0_2044_4691)">
<path d="M15.414 6.5464L10.3573 1.48907C9.7315 0.865059 8.88378 0.514648 8.00001 0.514648C7.11623 0.514648 6.26851 0.865059 5.64267 1.48907L0.586008 6.5464C0.399625 6.73159 0.251855 6.95193 0.151263 7.19466C0.0506715 7.43738 -0.000740267 7.69766 8.05299e-06 7.9604V14.5051C8.05299e-06 15.0355 0.210722 15.5442 0.585795 15.9193C0.960867 16.2944 1.46958 16.5051 2.00001 16.5051H14C14.5304 16.5051 15.0391 16.2944 15.4142 15.9193C15.7893 15.5442 16 15.0355 16 14.5051V7.9604C16.0008 7.69766 15.9493 7.43738 15.8488 7.19466C15.7482 6.95193 15.6004 6.73159 15.414 6.5464ZM10 15.1717H6.00001V12.5491C6.00001 12.0186 6.21072 11.5099 6.58579 11.1349C6.96087 10.7598 7.46958 10.5491 8.00001 10.5491C8.53044 10.5491 9.03915 10.7598 9.41422 11.1349C9.7893 11.5099 10 12.0186 10 12.5491V15.1717ZM14.6667 14.5051C14.6667 14.6819 14.5964 14.8514 14.4714 14.9765C14.3464 15.1015 14.1768 15.1717 14 15.1717H11.3333V12.5491C11.3333 11.665 10.9822 10.8172 10.357 10.192C9.73191 9.56692 8.88406 9.21573 8.00001 9.21573C7.11595 9.21573 6.26811 9.56692 5.64299 10.192C5.01786 10.8172 4.66667 11.665 4.66667 12.5491V15.1717H2.00001C1.8232 15.1717 1.65363 15.1015 1.5286 14.9765C1.40358 14.8514 1.33334 14.6819 1.33334 14.5051V7.9604C1.33396 7.78372 1.40413 7.61439 1.52867 7.48907L6.58534 2.43373C6.96114 2.05969 7.46978 1.84969 8.00001 1.84969C8.53023 1.84969 9.03888 2.05969 9.41468 2.43373L14.4713 7.49107C14.5954 7.6159 14.6655 7.78441 14.6667 7.9604V14.5051Z" fill="#4D4D4D"/>
</g>
<defs>
<clipPath id="clip0_2044_4691">
<rect width="16" height="16" fill="white" transform="translate(0 0.5)"/>
</clipPath>
</defs>
</svg>
