<svg width="22" height="22" viewBox="0 0 22 22" fill="none" xmlns="http://www.w3.org/2000/svg">
<g clip-path="url(#clip0_2002_4367)">
<path d="M18.2872 5.07506L15.0917 1.87956C14.4973 1.28196 13.7903 0.808177 13.0116 0.48562C12.2329 0.163063 11.398 -0.0018618 10.5551 0.000388941H6.41634C5.20121 0.00184448 4.03627 0.485197 3.17704 1.34442C2.31782 2.20365 1.83446 3.36859 1.83301 4.58372V17.4171C1.83446 18.6322 2.31782 19.7971 3.17704 20.6564C4.03627 21.5156 5.20121 21.9989 6.41634 22.0004H15.583C16.7981 21.9989 17.9631 21.5156 18.8223 20.6564C19.6815 19.7971 20.1649 18.6322 20.1663 17.4171V9.61164C20.1686 8.76878 20.0037 7.93384 19.6811 7.15514C19.3586 6.37644 18.8848 5.66944 18.2872 5.07506V5.07506ZM16.991 6.37122C17.2706 6.65943 17.5113 6.98302 17.7069 7.33372H13.7497C13.5066 7.33372 13.2734 7.23715 13.1015 7.06524C12.9296 6.89333 12.833 6.66017 12.833 6.41706V2.45981C13.1837 2.65541 13.5073 2.89609 13.7955 3.17572L16.991 6.37122ZM18.333 17.4171C18.333 18.1464 18.0433 18.8459 17.5276 19.3616C17.0118 19.8773 16.3124 20.1671 15.583 20.1671H6.41634C5.687 20.1671 4.98752 19.8773 4.4718 19.3616C3.95607 18.8459 3.66634 18.1464 3.66634 17.4171V4.58372C3.66634 3.85438 3.95607 3.1549 4.4718 2.63918C4.98752 2.12345 5.687 1.83372 6.41634 1.83372H10.5551C10.7063 1.83372 10.8512 1.86306 10.9997 1.87681V6.41706C10.9997 7.1464 11.2894 7.84588 11.8051 8.3616C12.3209 8.87733 13.0203 9.16706 13.7497 9.16706H18.2899C18.3037 9.31556 18.333 9.46039 18.333 9.61164V17.4171ZM15.33 12.2021C15.4974 12.3782 15.588 12.6135 15.582 12.8564C15.576 13.0993 15.4738 13.3298 15.2979 13.4974L12.008 16.6269C11.4909 17.1359 10.7935 17.4199 10.0679 17.417C9.34226 17.414 8.64721 17.1245 8.13417 16.6113L6.72251 15.3518C6.5409 15.1899 6.43105 14.9625 6.41713 14.7196C6.41023 14.5993 6.4271 14.4788 6.46675 14.3651C6.50641 14.2513 6.56809 14.1465 6.64826 14.0566C6.72843 13.9666 6.82553 13.8934 6.93401 13.841C7.04249 13.7886 7.16023 13.7581 7.28051 13.7512C7.52341 13.7373 7.7619 13.8204 7.94351 13.9823L9.39643 15.2785C9.4796 15.3719 9.58101 15.4473 9.69441 15.5C9.80782 15.5528 9.93081 15.5818 10.0558 15.5852C10.1809 15.5886 10.3053 15.5664 10.4214 15.52C10.5375 15.4736 10.6429 15.4038 10.7311 15.3151L14.0311 12.1701C14.1184 12.0866 14.2212 12.0212 14.3338 11.9777C14.4464 11.9341 14.5665 11.9132 14.6872 11.9162C14.8079 11.9192 14.9268 11.946 15.0371 11.9951C15.1474 12.0441 15.247 12.1145 15.33 12.2021V12.2021Z" fill="#4D4D4D"/>
</g>
<defs>
<clipPath id="clip0_2002_4367">
<rect width="22" height="22" fill="white"/>
</clipPath>
</defs>
</svg>
