<svg width="22" height="22" viewBox="0 0 22 22" fill="none" xmlns="http://www.w3.org/2000/svg">
<g clip-path="url(#clip0_2002_4381)">
<path d="M13.9394 13.0235L12.2958 14.6671L13.9394 16.3106C14.027 16.3952 14.0968 16.4963 14.1449 16.6082C14.1929 16.72 14.2182 16.8403 14.2192 16.962C14.2203 17.0837 14.1971 17.2044 14.151 17.3171C14.1049 17.4297 14.0369 17.5321 13.9508 17.6182C13.8647 17.7042 13.7624 17.7723 13.6497 17.8184C13.5371 17.8645 13.4164 17.8877 13.2946 17.8866C13.1729 17.8856 13.0526 17.8603 12.9408 17.8122C12.829 17.7642 12.7278 17.6944 12.6433 17.6068L10.9997 15.9632L9.35609 17.6068C9.18321 17.7738 8.95165 17.8662 8.71131 17.8641C8.47096 17.862 8.24105 17.7656 8.07109 17.5956C7.90113 17.4257 7.80473 17.1958 7.80264 16.9554C7.80055 16.7151 7.89295 16.4835 8.05992 16.3106L9.70351 14.6671L8.05992 13.0235C7.89295 12.8506 7.80055 12.619 7.80264 12.3787C7.80473 12.1383 7.90113 11.9084 8.07109 11.7385C8.24105 11.5685 8.47096 11.4721 8.71131 11.47C8.95165 11.4679 9.18321 11.5603 9.35609 11.7273L10.9997 13.3709L12.6433 11.7273C12.8161 11.5603 13.0477 11.4679 13.288 11.47C13.5284 11.4721 13.7583 11.5685 13.9283 11.7385C14.0982 11.9084 14.1946 12.1383 14.1967 12.3787C14.1988 12.619 14.1064 12.8506 13.9394 13.0235V13.0235ZM20.1663 9.61164V17.4171C20.1649 18.6322 19.6815 19.7971 18.8223 20.6564C17.9631 21.5156 16.7981 21.9989 15.583 22.0004H6.41634C5.20121 21.9989 4.03627 21.5156 3.17704 20.6564C2.31782 19.7971 1.83446 18.6322 1.83301 17.4171V4.58372C1.83446 3.36859 2.31782 2.20365 3.17704 1.34442C4.03627 0.485196 5.20121 0.00184288 6.41634 0.000387339H10.5551C11.3981 -0.00178234 12.2331 0.163176 13.012 0.485725C13.7908 0.808274 14.498 1.28201 15.0926 1.87955L18.2863 5.07505C18.8841 5.66927 19.3582 6.37622 19.6809 7.15495C20.0036 7.93367 20.1686 8.76869 20.1663 9.61164V9.61164ZM13.7964 3.17572C13.5079 2.89629 13.184 2.6559 12.833 2.46072V6.41705C12.833 6.66017 12.9296 6.89333 13.1015 7.06524C13.2734 7.23714 13.5066 7.33372 13.7497 7.33372H17.706C17.5107 6.98281 17.27 6.65919 16.9901 6.37122L13.7964 3.17572ZM18.333 9.61164C18.333 9.46039 18.3037 9.31555 18.2899 9.16705H13.7497C13.0203 9.16705 12.3209 8.87732 11.8051 8.3616C11.2894 7.84587 10.9997 7.1464 10.9997 6.41705V1.8768C10.8512 1.86305 10.7054 1.83372 10.5551 1.83372H6.41634C5.687 1.83372 4.98752 2.12345 4.4718 2.63918C3.95607 3.1549 3.66634 3.85438 3.66634 4.58372V17.4171C3.66634 18.1464 3.95607 18.8459 4.4718 19.3616C4.98752 19.8773 5.687 20.1671 6.41634 20.1671H15.583C16.3124 20.1671 17.0118 19.8773 17.5276 19.3616C18.0433 18.8459 18.333 18.1464 18.333 17.4171V9.61164Z" fill="#4D4D4D"/>
</g>
<defs>
<clipPath id="clip0_2002_4381">
<rect width="22" height="22" fill="white"/>
</clipPath>
</defs>
</svg>
