<svg width="22" height="22" viewBox="0 0 22 22" fill="none" xmlns="http://www.w3.org/2000/svg">
<path d="M18.7862 7.30367L10.0412 0.887007C9.35815 0.386859 8.54995 0.0856511 7.7062 0.016781C6.86245 -0.0520891 6.01611 0.11407 5.26102 0.496834C4.50594 0.879598 3.87161 1.46401 3.42839 2.18527C2.98516 2.90653 2.75035 3.73645 2.75 4.58301V17.4163C2.75015 18.2633 2.98497 19.0936 3.4284 19.8152C3.87183 20.5368 4.50653 21.1214 5.26205 21.5041C6.01758 21.8869 6.86438 22.0528 7.70848 21.9835C8.55258 21.9142 9.36096 21.6123 10.0439 21.1114L18.7889 14.6948C19.3694 14.2691 19.8415 13.7126 20.1669 13.0705C20.4922 12.4284 20.6618 11.7186 20.6618 10.9988C20.6618 10.2789 20.4922 9.56916 20.1669 8.92704C19.8415 8.28491 19.3694 7.72846 18.7889 7.30276L18.7862 7.30367ZM17.7008 13.2162L8.95583 19.6328C8.5461 19.9323 8.0615 20.1124 7.55569 20.1535C7.04988 20.1945 6.54258 20.0948 6.08994 19.8653C5.6373 19.6359 5.25698 19.2857 4.99107 18.8534C4.72516 18.4212 4.58405 17.9238 4.58333 17.4163V4.58301C4.57825 4.07458 4.7167 3.57502 4.9828 3.14175C5.24889 2.70848 5.63182 2.35907 6.08758 2.13367C6.47523 1.93649 6.90391 1.83348 7.33883 1.83301C7.92173 1.83523 8.48853 2.02449 8.95583 2.37292L17.7008 8.78959C18.0487 9.04506 18.3316 9.37883 18.5265 9.76389C18.7215 10.1489 18.8231 10.5745 18.8231 11.0061C18.8231 11.4377 18.7215 11.8632 18.5265 12.2483C18.3316 12.6334 18.0487 12.9671 17.7008 13.2226V13.2162Z" fill="#4D4D4D"/>
</svg>
