<svg width="16" height="16" viewBox="0 0 16 16" fill="none" xmlns="http://www.w3.org/2000/svg">
<g clip-path="url(#clip0_2044_4713)">
<path d="M15.662 7.34433C15.3373 6.90833 14.8393 6.65766 14.2953 6.65766H14V5.33299C14 3.49499 12.5047 1.99966 10.6667 1.99966H7.296C7.19333 1.99966 7.08933 1.97499 6.998 1.92966L4.89467 0.877659C4.61867 0.739659 4.30933 0.666992 4 0.666992H2.66667C1.196 0.666326 0 1.86233 0 3.33299V11.9997C0 13.8377 1.49533 15.333 3.33333 15.333H11.7053C13.1893 15.333 14.472 14.3783 14.9067 12.9283L15.928 8.85099C16.084 8.32966 15.9867 7.78099 15.662 7.34433ZM1.33333 11.9997V3.33299C1.33333 2.59766 1.93133 1.99966 2.66667 1.99966H4C4.10267 1.99966 4.20667 2.02433 4.298 2.06966L6.40133 3.12166C6.67733 3.25966 6.98667 3.33233 7.296 3.33233H10.6667C11.7693 3.33233 12.6667 4.22966 12.6667 5.33233V6.65699H5.74333C4.61 6.65699 3.598 7.37633 3.21733 8.47033L1.75733 13.229C1.492 12.8897 1.33333 12.463 1.33333 11.9997ZM14.6427 8.49766L13.6213 12.5743C13.3653 13.427 12.5953 13.9997 11.7053 13.9997H3.33333C3.19467 13.9997 3.05933 13.9857 2.92867 13.9583L4.48467 8.88566C4.67067 8.35033 5.17733 7.99099 5.744 7.99099H14.296C14.4573 7.99099 14.5513 8.08433 14.5927 8.14033C14.634 8.19633 14.6967 8.31299 14.6427 8.49766Z" fill="#4D4D4D"/>
</g>
<defs>
<clipPath id="clip0_2044_4713">
<rect width="16" height="16" fill="white"/>
</clipPath>
</defs>
</svg>
