<svg width="17" height="16" viewBox="0 0 17 16" fill="none" xmlns="http://www.w3.org/2000/svg">
<g clip-path="url(#clip0_2044_4727)">
<path d="M5.5 8.66667C4.90666 8.66667 4.32664 8.49072 3.83329 8.16108C3.33994 7.83143 2.95542 7.3629 2.72836 6.81472C2.5013 6.26654 2.44189 5.66334 2.55764 5.0814C2.6734 4.49945 2.95912 3.96491 3.37868 3.54535C3.79824 3.12579 4.33279 2.84007 4.91473 2.72431C5.49667 2.60856 6.09987 2.66797 6.64805 2.89503C7.19623 3.12209 7.66476 3.50661 7.99441 3.99996C8.32405 4.4933 8.5 5.07332 8.5 5.66667C8.49912 6.46205 8.18276 7.2246 7.62035 7.78701C7.05793 8.34943 6.29538 8.66579 5.5 8.66667ZM5.5 4C5.17036 4 4.84813 4.09775 4.57405 4.28089C4.29997 4.46402 4.08635 4.72432 3.9602 5.02886C3.83405 5.33341 3.80105 5.66852 3.86536 5.99182C3.92967 6.31512 4.0884 6.61209 4.32149 6.84518C4.55458 7.07827 4.85155 7.237 5.17485 7.30131C5.49815 7.36562 5.83326 7.33261 6.13781 7.20647C6.44235 7.08032 6.70265 6.8667 6.88578 6.59262C7.06892 6.31854 7.16667 5.9963 7.16667 5.66667C7.16667 5.22464 6.99107 4.80072 6.67851 4.48816C6.36595 4.1756 5.94203 4 5.5 4ZM10.5 15.3333V15C10.5 13.6739 9.97322 12.4021 9.03553 11.4645C8.09785 10.5268 6.82608 10 5.5 10C4.17392 10 2.90215 10.5268 1.96447 11.4645C1.02678 12.4021 0.5 13.6739 0.5 15L0.5 15.3333C0.5 15.5101 0.570238 15.6797 0.695262 15.8047C0.820286 15.9298 0.989856 16 1.16667 16C1.34348 16 1.51305 15.9298 1.63807 15.8047C1.7631 15.6797 1.83333 15.5101 1.83333 15.3333V15C1.83333 14.0275 2.21964 13.0949 2.90728 12.4073C3.59491 11.7196 4.52754 11.3333 5.5 11.3333C6.47246 11.3333 7.40509 11.7196 8.09273 12.4073C8.78036 13.0949 9.16667 14.0275 9.16667 15V15.3333C9.16667 15.5101 9.2369 15.6797 9.36193 15.8047C9.48695 15.9298 9.65652 16 9.83333 16C10.0101 16 10.1797 15.9298 10.3047 15.8047C10.4298 15.6797 10.5 15.5101 10.5 15.3333ZM16.5 12C16.5 11.0991 16.2392 10.2175 15.7491 9.46158C15.2591 8.70565 14.5607 8.10772 13.7383 7.73998C12.9159 7.37223 12.0046 7.25039 11.1145 7.38916C10.2244 7.52793 9.39344 7.92137 8.722 8.522C8.65584 8.58013 8.60186 8.6508 8.56317 8.72991C8.52448 8.80903 8.50185 8.89502 8.49659 8.98293C8.49132 9.07085 8.50353 9.15893 8.5325 9.24209C8.56147 9.32526 8.60663 9.40186 8.66537 9.46748C8.72412 9.53309 8.79528 9.58642 8.87475 9.62437C8.95422 9.66232 9.04042 9.68416 9.12838 9.68861C9.21633 9.69306 9.3043 9.68004 9.38719 9.65029C9.47009 9.62055 9.54627 9.57468 9.61133 9.51533C10.091 9.08641 10.6845 8.80548 11.3203 8.70644C11.956 8.6074 12.6069 8.69449 13.1943 8.9572C13.7816 9.21991 14.2804 9.647 14.6304 10.1869C14.9804 10.7269 15.1667 11.3566 15.1667 12C15.1667 12.1768 15.2369 12.3464 15.3619 12.4714C15.487 12.5964 15.6565 12.6667 15.8333 12.6667C16.0101 12.6667 16.1797 12.5964 16.3047 12.4714C16.4298 12.3464 16.5 12.1768 16.5 12ZM12.1667 6C11.5733 6 10.9933 5.82405 10.5 5.49441C10.0066 5.16477 9.62209 4.69623 9.39503 4.14805C9.16797 3.59987 9.10856 2.99667 9.22431 2.41473C9.34007 1.83279 9.62579 1.29824 10.0453 0.878681C10.4649 0.459124 10.9995 0.173401 11.5814 0.0576455C12.1633 -0.0581102 12.7665 0.00129986 13.3147 0.228363C13.8629 0.455426 14.3314 0.839943 14.6611 1.33329C14.9907 1.82664 15.1667 2.40666 15.1667 3C15.1658 3.79538 14.8494 4.55793 14.287 5.12035C13.7246 5.68277 12.962 5.99912 12.1667 6ZM12.1667 1.33333C11.837 1.33333 11.5148 1.43108 11.2407 1.61422C10.9666 1.79735 10.753 2.05765 10.6269 2.3622C10.5007 2.66674 10.4677 3.00185 10.532 3.32515C10.5963 3.64845 10.7551 3.94543 10.9882 4.17851C11.2212 4.4116 11.5182 4.57033 11.8415 4.63464C12.1648 4.69895 12.4999 4.66595 12.8045 4.5398C13.109 4.41365 13.3693 4.20003 13.5524 3.92595C13.7356 3.65187 13.8333 3.32964 13.8333 3C13.8333 2.55797 13.6577 2.13405 13.3452 1.82149C13.0326 1.50893 12.6087 1.33333 12.1667 1.33333Z" fill="#4D4D4D"/>
</g>
<defs>
<clipPath id="clip0_2044_4727">
<rect width="16" height="16" fill="white" transform="translate(0.5)"/>
</clipPath>
</defs>
</svg>
