<svg width="16" height="16" viewBox="0 0 16 16" fill="none" xmlns="http://www.w3.org/2000/svg">
<g clip-path="url(#clip0_2044_4721)">
<path d="M13.2667 2.06031C13.1847 1.70808 13.0319 1.3762 12.8177 1.08486C12.6034 0.793516 12.3322 0.548797 12.0204 0.365584C11.7086 0.182372 11.3628 0.0644938 11.004 0.0191196C10.6452 -0.0262546 10.2809 0.00182302 9.93333 0.101645L8.784 0.430312C8.49285 0.513992 8.22469 0.663124 8 0.866312C7.77531 0.663124 7.50715 0.513992 7.216 0.430312L6.06667 0.101645C5.71929 0.00234329 5.35536 -0.0253341 4.99696 0.0202929C4.63856 0.0659198 4.29317 0.183899 3.98175 0.36707C3.67034 0.550242 3.39939 0.794784 3.18536 1.08585C2.97133 1.37692 2.81868 1.70845 2.73667 2.06031C1.96987 2.19982 1.27619 2.60362 0.776222 3.20151C0.276251 3.7994 0.00159732 4.55359 0 5.33298L0 9.99965C0.00105857 10.8834 0.352588 11.7306 0.97748 12.3555C1.60237 12.9804 2.4496 13.3319 3.33333 13.333H7.33333V14.6663H5.33333C5.15652 14.6663 4.98695 14.7365 4.86193 14.8616C4.7369 14.9866 4.66667 15.1562 4.66667 15.333C4.66667 15.5098 4.7369 15.6794 4.86193 15.8044C4.98695 15.9294 5.15652 15.9996 5.33333 15.9996H10.6667C10.8435 15.9996 11.013 15.9294 11.1381 15.8044C11.2631 15.6794 11.3333 15.5098 11.3333 15.333C11.3333 15.1562 11.2631 14.9866 11.1381 14.8616C11.013 14.7365 10.8435 14.6663 10.6667 14.6663H8.66667V13.333H12.6667C13.5504 13.3319 14.3976 12.9804 15.0225 12.3555C15.6474 11.7306 15.9989 10.8834 16 9.99965V5.33298C15.9985 4.55407 15.7244 3.80026 15.2251 3.20244C14.7258 2.60461 14.0329 2.20051 13.2667 2.06031V2.06031ZM8.66667 2.35364C8.66673 2.20886 8.71393 2.06802 8.80113 1.95244C8.88833 1.83685 9.01079 1.7528 9.15 1.71298L10.3 1.38431C10.4985 1.32755 10.7074 1.31764 10.9103 1.35536C11.1133 1.39307 11.3047 1.4774 11.4695 1.60168C11.6343 1.72596 11.768 1.88681 11.86 2.07155C11.9521 2.2563 12 2.4599 12 2.66631V5.29165C11.9991 5.58095 11.9044 5.86215 11.7301 6.09306C11.5558 6.32397 11.3113 6.49213 11.0333 6.57231L8.66667 7.24831V2.35364ZM4.53333 1.59965C4.69782 1.47581 4.88883 1.3919 5.0913 1.35453C5.29377 1.31716 5.50215 1.32736 5.7 1.38431L6.85 1.71298C6.98921 1.7528 7.11167 1.83685 7.19887 1.95244C7.28607 2.06802 7.33327 2.20886 7.33333 2.35364V7.24831L4.96667 6.57231C4.6887 6.49213 4.44423 6.32397 4.26993 6.09306C4.09564 5.86215 4.00092 5.58095 4 5.29165V2.66631C3.99932 2.4592 4.04722 2.25481 4.13984 2.06957C4.23247 1.88432 4.36724 1.72337 4.53333 1.59965V1.59965ZM14.6667 9.99965C14.6667 10.5301 14.456 11.0388 14.0809 11.4139C13.7058 11.7889 13.1971 11.9996 12.6667 11.9996H3.33333C2.8029 11.9996 2.29419 11.7889 1.91912 11.4139C1.54405 11.0388 1.33333 10.5301 1.33333 9.99965V5.33298C1.33504 4.92081 1.46406 4.51923 1.70273 4.18318C1.94139 3.84713 2.27806 3.59303 2.66667 3.45565V5.29165C2.6683 5.87054 2.85761 6.43329 3.2062 6.89547C3.55478 7.35765 4.04384 7.69432 4.6 7.85498L6.90067 8.51298C7.61968 8.71793 8.38165 8.71793 9.10067 8.51298L11.4013 7.85498C11.9572 7.69408 12.446 7.3573 12.7943 6.89515C13.1427 6.43299 13.3318 5.87037 13.3333 5.29165V3.45565C13.7219 3.59303 14.0586 3.84713 14.2973 4.18318C14.5359 4.51923 14.665 4.92081 14.6667 5.33298V9.99965Z" fill="#4D4D4D"/>
</g>
<defs>
<clipPath id="clip0_2044_4721">
<rect width="16" height="16" fill="white"/>
</clipPath>
</defs>
</svg>
