<svg width="16" height="16" viewBox="0 0 16 16" fill="none" xmlns="http://www.w3.org/2000/svg">
<path d="M15.2263 13.9033L12.3228 10.9988C14.4953 8.09584 13.9029 3.98146 10.9997 1.80914C8.09648 -0.36319 3.98176 0.229132 1.80925 3.13212C-0.363263 6.03511 0.22911 10.1495 3.13234 12.3218C5.46445 14.0668 8.66756 14.0668 10.9997 12.3218L13.9044 15.2263C14.2694 15.5912 14.8612 15.5912 15.2262 15.2263C15.5913 14.8613 15.5913 14.2695 15.2262 13.9045L15.2263 13.9033ZM7.09023 11.7612C4.50998 11.7612 2.41829 9.66971 2.41829 7.08968C2.41829 4.50964 4.50998 2.41813 7.09023 2.41813C9.67048 2.41813 11.7622 4.50964 11.7622 7.08968C11.7594 9.66855 9.66934 11.7585 7.09023 11.7612Z" fill="#9D9D9D"/>
</svg>
